<svg xmlns="http://www.w3.org/2000/svg" xmlns:xlink="http://www.w3.org/1999/xlink" id="Layer_1" x="0px" y="0px" viewBox="0 0 300 90" style="enable-background:new 0 0 300 90;" xml:space="preserve"> <style type="text/css"> .st0{fill:#041F42;} .st1{fill:#1FBACF;} </style> <g id="Layer_1_00000088105839675348923880000012897433300718093478_"> <g> <path class="st0" d="M25.4,48.2c-7.8,0-13.4-6-13.4-13.3v-0.1c0-7.4,5.6-13.4,13.5-13.4c4.9,0,7.9,1.6,10.3,4.3l-4.5,4.8 c-1.6-1.7-3.3-2.8-5.9-2.8c-3.7,0-6.3,3.2-6.3,7v0.1c0,4,2.5,7.1,6.6,7.1c2.5,0,4.1-1.1,5.9-2.8l4.3,4.3 C33.4,46.2,30.5,48.2,25.4,48.2z"></path> <path class="st0" d="M66.7,27.1c-3,0-5,2.2-5.6,5.5h11C71.7,29.4,69.7,27.1,66.7,27.1z M79.1,37.2h-18c0.7,3.3,3,5.1,6.3,5.1 c2.4,0,4.2-0.8,6.3-2.7l4.2,3.7c-2.4,3-5.9,4.8-10.6,4.8c-7.8,0-13.5-5.4-13.5-13.3v-0.1c0-7.4,5.2-13.4,12.8-13.4 c8.6,0,12.6,6.7,12.6,14v0.1C79.2,36.1,79.2,36.6,79.1,37.2L79.1,37.2z"></path> <path class="st0" d="M97.1,37.2c-1.2-0.6-2.9-1-4.7-1c-3.1,0-5.1,1.2-5.1,3.6v0.1c0,2,1.6,3.1,4,3.1c3.4,0,5.7-1.9,5.7-4.5 C97.1,38.5,97.1,37.2,97.1,37.2z M96.9,44.8c-1.8,2-4.2,3.3-7.8,3.3c-4.9,0-8.9-2.8-8.9-7.9V40c0-5.6,4.3-8.2,10.4-8.2 c2.6,0,4.5,0.4,6.3,1.1v-0.4c0-3-1.9-4.7-5.5-4.7c-2.8,0-4.8,0.5-7.1,1.4l-1.8-5.6c2.8-1.2,5.6-2.1,10-2.1c8,0,11.5,4.1,11.5,11.1 v15L96.9,44.8L96.9,44.8z"></path> <polygon class="st0" points="149.6,47.8 142.9,47.8 132.8,21.8 140.5,21.8 146.3,39 152.1,21.8 159.8,21.8 "></polygon> <path class="st0" d="M171.2,27.1c-3,0-5,2.2-5.6,5.5h11C176.2,29.4,174.2,27.1,171.2,27.1z M183.6,37.2h-18c0.7,3.3,3,5.1,6.3,5.1 c2.4,0,4.2-0.8,6.3-2.7l4.2,3.7c-2.4,3-5.9,4.8-10.6,4.8c-7.8,0-13.5-5.4-13.5-13.3v-0.1c0-7.4,5.2-13.4,12.8-13.4 c8.6,0,12.6,6.7,12.6,14v0.1C183.7,36.1,183.7,36.6,183.6,37.2L183.6,37.2z"></path> <polygon class="st0" points="185.7,45.2 202.2,25.8 186.3,25.8 186.3,22.7 207.3,22.7 207.3,25 190.7,44.4 207.3,44.4 207.3,47.6 185.7,47.6 "></polygon> <path class="st0" d="M231.7,35.2L231.7,35.2c0-5.4-4-9.8-9.2-9.8s-9.1,4.4-9.1,9.6v0.1c0,5.3,3.9,9.7,9.2,9.7 S231.7,40.5,231.7,35.2L231.7,35.2z M209.5,35.2L209.5,35.2c0-7.1,5.5-13.1,13-13.1s13,5.9,13,12.9v0.1c0,7-5.5,13-13.1,13 S209.5,42.3,209.5,35.2L209.5,35.2z"></path> <path class="st0" d="M239.3,22.7h3.7V27c1.6-2.7,4.2-4.9,8.5-4.9c6,0,9.5,4,9.5,10v15.5h-3.7V33c0-4.6-2.5-7.5-6.9-7.5 s-7.5,3.1-7.5,7.8v14.3h-3.7V22.7z"></path> <path class="st0" d="M284.3,33.7c-0.4-4.5-3-8.4-8-8.4c-4.3,0-7.6,3.6-8.1,8.4H284.3z M277,44.9c3.4,0,5.8-1.4,7.9-3.5l2.3,2.1 c-2.5,2.8-5.5,4.7-10.3,4.7c-6.8,0-12.4-5.2-12.4-13c0-7.2,5.1-13,12-13c7.4,0,11.6,5.9,11.6,13.2c0,0.3,0,0.7,0,1.3h-19.8 C268.8,41.9,272.7,44.9,277,44.9z"></path> <path class="st0" d="M128.1,21.8h-4.4v22.9c0,1.6,1.3,3,3,3h4.4V24.7C131.1,23.1,129.8,21.8,128.1,21.8L128.1,21.8z"></path> <path class="st0" d="M45.1,27v-2.2c0-1.6-1.3-3-3-3h-4.4v25.8h7.3V38c0-6.2,3-9.1,7.8-9.1h0.4v-7.7C49,21.1,46.6,23.4,45.1,27 L45.1,27z"></path> <path class="st0" d="M118.6,21.8h-3.7v-3.6c0-1.6-1.3-3-3-3h-4.4v0.1l-0.1-0.1v6.6h-3.1v3.9c0,1.3,1.1,2.4,2.4,2.4h0.7l0,0v12.2 c0,6,3,7.8,7.5,7.8c2.5,0,4.2-0.6,5.8-1.5v-5.9c-1.1,0.6-2.3,0.9-3.6,0.9c-1.6,0-2.4-0.8-2.4-2.5V28h6.1v-3.9 C120.9,22.8,119.9,21.8,118.6,21.8L118.6,21.8z"></path> <path class="st0" d="M101.1,40.5h-4.2v4.2c0,1.6,1.3,2.9,2.9,2.9h4.2v-4.2C104,41.8,102.7,40.5,101.1,40.5L101.1,40.5z"></path> <path class="st1" d="M128.1,12.5h-4.4v4.4c0,1.6,1.3,3,3,3h4.4v-4.4C131.1,13.8,129.8,12.5,128.1,12.5L128.1,12.5z"></path> </g> </g> <g id="Layer_2_00000056413409958933401730000013524424345004164268_"> <g> <path class="st1" d="M27.9,72.4c0,0.7-0.1,1.4-0.4,1.9s-0.7,1.1-1.2,1.4s-1.1,0.7-1.7,0.9S23.2,77,22.4,77h-8.5V59.3h9.2 c0.6,0,1.2,0.1,1.7,0.4s0.9,0.6,1.3,1s0.6,0.9,0.8,1.5s0.3,1.1,0.3,1.6c0,0.9-0.2,1.7-0.7,2.4s-1.1,1.3-1.9,1.7 c1,0.3,1.8,0.8,2.4,1.6S27.9,71.3,27.9,72.4L27.9,72.4z M16.7,61.7v5.2h5.1c0.4,0,0.7-0.1,1-0.2c0.3-0.1,0.5-0.3,0.8-0.5 c0.2-0.2,0.4-0.5,0.5-0.8c0.1-0.3,0.2-0.7,0.2-1.1c0-0.8-0.2-1.4-0.6-1.9c-0.4-0.5-1-0.7-1.6-0.7C22,61.7,16.7,61.7,16.7,61.7z M25,71.9c0-0.4-0.1-0.7-0.2-1.1s-0.3-0.6-0.5-0.9s-0.5-0.4-0.8-0.6c-0.3-0.2-0.6-0.2-1-0.2h-5.9v5.4h5.7c0.4,0,0.7-0.1,1-0.2 c0.3-0.1,0.6-0.3,0.8-0.6s0.4-0.5,0.5-0.8S25,72.3,25,71.9z"></path> <path class="st1" d="M38.2,74.6c0.9,0,1.7-0.2,2.3-0.6c0.6-0.4,1.1-0.8,1.5-1.4c0.4-0.6,0.6-1.3,0.8-2c0.2-0.8,0.2-1.5,0.2-2.3v-9 h2.8v9c0,1.2-0.1,2.4-0.4,3.4s-0.7,2-1.3,2.8s-1.4,1.4-2.4,1.9c-1,0.5-2.2,0.7-3.5,0.7s-2.6-0.2-3.6-0.7s-1.8-1.2-2.4-2 c-0.6-0.8-1-1.8-1.3-2.8c-0.3-1.1-0.4-2.2-0.4-3.3v-9h2.8v9c0,0.8,0.1,1.6,0.2,2.4s0.4,1.4,0.8,2s0.9,1.1,1.5,1.4 S37.3,74.6,38.2,74.6L38.2,74.6z"></path> <path class="st1" d="M60.1,63.4c-0.2-0.2-0.4-0.4-0.7-0.6c-0.3-0.2-0.7-0.4-1.1-0.6c-0.4-0.2-0.9-0.3-1.4-0.5 c-0.5-0.1-1-0.2-1.6-0.2c-1.2,0-2,0.2-2.6,0.7s-0.8,1-0.8,1.8c0,0.4,0.1,0.8,0.3,1.1s0.5,0.5,0.8,0.7c0.4,0.2,0.8,0.4,1.4,0.6 c0.5,0.2,1.2,0.3,1.9,0.5c0.9,0.2,1.7,0.5,2.4,0.7c0.7,0.3,1.3,0.6,1.8,1c0.5,0.4,0.9,0.8,1.2,1.4c0.3,0.6,0.4,1.2,0.4,2 c0,0.9-0.2,1.7-0.5,2.3s-0.8,1.2-1.4,1.6c-0.6,0.4-1.3,0.7-2.1,0.9s-1.6,0.3-2.5,0.3c-1.3,0-2.7-0.2-3.9-0.6s-2.4-1-3.4-1.8 l1.3-2.4c0.2,0.2,0.5,0.5,0.9,0.7s0.9,0.5,1.4,0.7s1.1,0.4,1.8,0.6c0.6,0.2,1.3,0.2,2,0.2c1.1,0,2-0.2,2.5-0.6s0.9-0.9,0.9-1.7 c0-0.4-0.1-0.8-0.3-1.1c-0.2-0.3-0.5-0.6-1-0.8c-0.4-0.2-0.9-0.4-1.5-0.6s-1.3-0.4-2-0.6c-0.9-0.2-1.7-0.5-2.3-0.7 c-0.7-0.3-1.2-0.6-1.6-0.9s-0.8-0.8-1-1.3c-0.2-0.5-0.3-1.1-0.3-1.8c0-0.9,0.2-1.6,0.5-2.3c0.3-0.7,0.8-1.2,1.4-1.7 c0.6-0.5,1.2-0.8,2-1c0.8-0.2,1.6-0.3,2.5-0.3c1.2,0,2.3,0.2,3.3,0.6s1.9,0.9,2.7,1.4L60.1,63.4L60.1,63.4z"></path> <path class="st1" d="M64.9,77V59.3h2.8V77H64.9z"></path> <path class="st1" d="M74.5,64.5V77h-2.8V59.3h2.2L84,72.1V59.3h2.8V77h-2.3L74.5,64.5L74.5,64.5z"></path> <path class="st1" d="M103,74.5V77H90.9V59.3h11.9v2.5h-9.2v5h7.9v2.3h-7.9v5.4L103,74.5L103,74.5z"></path> <path class="st1" d="M116.4,63.4c-0.2-0.2-0.4-0.4-0.7-0.6c-0.3-0.2-0.7-0.4-1.1-0.6c-0.4-0.2-0.9-0.3-1.4-0.5s-1-0.2-1.6-0.2 c-1.2,0-2.1,0.2-2.6,0.7s-0.8,1-0.8,1.8c0,0.4,0.1,0.8,0.3,1.1c0.2,0.3,0.4,0.5,0.8,0.7c0.4,0.2,0.8,0.4,1.4,0.6 c0.6,0.2,1.2,0.3,1.9,0.5c0.9,0.2,1.7,0.5,2.4,0.7c0.7,0.3,1.3,0.6,1.8,1c0.5,0.4,0.9,0.8,1.2,1.4c0.3,0.6,0.4,1.2,0.4,2 c0,0.9-0.2,1.7-0.5,2.3s-0.8,1.2-1.4,1.6c-0.6,0.4-1.3,0.7-2.1,0.9s-1.6,0.3-2.5,0.3c-1.3,0-2.7-0.2-3.9-0.6s-2.4-1-3.4-1.8 l1.3-2.4c0.2,0.2,0.5,0.5,0.9,0.7s0.9,0.5,1.4,0.7s1.1,0.4,1.8,0.6c0.6,0.2,1.3,0.2,2,0.2c1.1,0,1.9-0.2,2.6-0.6 c0.6-0.4,0.9-0.9,0.9-1.7c0-0.4-0.1-0.8-0.3-1.1c-0.2-0.3-0.6-0.6-1-0.8c-0.4-0.2-0.9-0.4-1.5-0.6s-1.3-0.4-2.1-0.6 c-0.9-0.2-1.7-0.5-2.3-0.7c-0.7-0.3-1.2-0.6-1.6-0.9s-0.8-0.8-1-1.3c-0.2-0.5-0.3-1.1-0.3-1.8c0-0.9,0.2-1.6,0.5-2.3 c0.3-0.7,0.8-1.2,1.4-1.7c0.6-0.5,1.2-0.8,2-1c0.8-0.2,1.6-0.3,2.6-0.3c1.2,0,2.3,0.2,3.3,0.6s1.9,0.9,2.7,1.4L116.4,63.4 L116.4,63.4z"></path> <path class="st1" d="M131.7,63.4c-0.2-0.2-0.4-0.4-0.7-0.6c-0.3-0.2-0.7-0.4-1.1-0.6c-0.4-0.2-0.9-0.3-1.4-0.5 c-0.5-0.1-1-0.2-1.6-0.2c-1.2,0-2.1,0.2-2.6,0.7s-0.8,1-0.8,1.8c0,0.4,0.1,0.8,0.3,1.1c0.2,0.3,0.4,0.5,0.8,0.7 c0.4,0.2,0.8,0.4,1.4,0.6c0.6,0.2,1.2,0.3,1.9,0.5c0.9,0.2,1.7,0.5,2.4,0.7c0.7,0.3,1.3,0.6,1.8,1c0.5,0.4,0.9,0.8,1.2,1.4 c0.3,0.6,0.4,1.2,0.4,2c0,0.9-0.2,1.7-0.5,2.3s-0.8,1.2-1.4,1.6c-0.6,0.4-1.3,0.7-2.1,0.9s-1.6,0.3-2.5,0.3 c-1.3,0-2.7-0.2-3.9-0.6s-2.4-1-3.4-1.8l1.3-2.4c0.2,0.2,0.5,0.5,0.9,0.7s0.9,0.5,1.4,0.7c0.5,0.2,1.1,0.4,1.8,0.6 c0.6,0.2,1.3,0.2,2,0.2c1.1,0,2-0.2,2.5-0.6c0.6-0.4,0.9-0.9,0.9-1.7c0-0.4-0.1-0.8-0.3-1.1c-0.2-0.3-0.6-0.6-1-0.8 s-0.9-0.4-1.5-0.6s-1.3-0.4-2.1-0.6c-0.9-0.2-1.7-0.5-2.3-0.7s-1.2-0.6-1.6-0.9c-0.4-0.4-0.8-0.8-1-1.3c-0.2-0.5-0.3-1.1-0.3-1.8 c0-0.9,0.2-1.6,0.5-2.3c0.3-0.7,0.8-1.2,1.4-1.7s1.2-0.8,2-1s1.6-0.3,2.6-0.3c1.2,0,2.3,0.2,3.3,0.6s1.9,0.9,2.7,1.4L131.7,63.4 L131.7,63.4z"></path> <path class="st1" d="M157.2,59.3V77h-2.8v-7.8h-8.9V77h-2.8V59.3h2.8v7.4h8.9v-7.4C154.4,59.3,157.2,59.3,157.2,59.3z"></path> <path class="st1" d="M168.6,74.6c0.9,0,1.7-0.2,2.3-0.6s1.1-0.8,1.5-1.4c0.4-0.6,0.6-1.3,0.8-2c0.2-0.8,0.2-1.5,0.2-2.3v-9h2.8v9 c0,1.2-0.1,2.4-0.4,3.4s-0.7,2-1.4,2.8s-1.4,1.4-2.4,1.9c-1,0.5-2.1,0.7-3.5,0.7s-2.6-0.2-3.6-0.7s-1.8-1.2-2.4-2s-1-1.8-1.3-2.8 s-0.4-2.2-0.4-3.3v-9h2.8v9c0,0.8,0.1,1.6,0.2,2.4s0.4,1.4,0.8,2s0.9,1.1,1.5,1.4S167.7,74.6,168.6,74.6L168.6,74.6z"></path> <path class="st1" d="M194,72.4c0,0.7-0.1,1.4-0.4,1.9c-0.3,0.6-0.7,1.1-1.2,1.4s-1.1,0.7-1.7,0.9s-1.4,0.3-2.1,0.3H180V59.3h9.1 c0.6,0,1.2,0.1,1.7,0.4s0.9,0.6,1.3,1s0.6,0.9,0.8,1.5s0.3,1.1,0.3,1.6c0,0.9-0.2,1.7-0.7,2.4s-1.1,1.3-1.9,1.7 c1,0.3,1.8,0.8,2.4,1.6S194,71.3,194,72.4L194,72.4z M182.8,61.7v5.2h5.1c0.4,0,0.7-0.1,1-0.2s0.6-0.3,0.8-0.5 c0.2-0.2,0.4-0.5,0.5-0.8c0.1-0.3,0.2-0.7,0.2-1.1c0-0.8-0.2-1.4-0.6-1.9s-1-0.7-1.6-0.7L182.8,61.7L182.8,61.7z M191.1,71.9 c0-0.4-0.1-0.7-0.2-1.1s-0.3-0.6-0.5-0.9c-0.2-0.2-0.5-0.4-0.8-0.6c-0.3-0.2-0.6-0.2-1-0.2h-5.9v5.4h5.7c0.4,0,0.7-0.1,1-0.2 c0.3-0.1,0.6-0.3,0.8-0.6c0.2-0.2,0.4-0.5,0.6-0.8S191.1,72.3,191.1,71.9z"></path> </g> </g> </svg>