<svg xmlns="http://www.w3.org/2000/svg" xmlns:xlink="http://www.w3.org/1999/xlink" width="315.987" height="40.848" viewBox="0 0 315.987 40.848"><defs><clipPath id="clip-path"><rect id="Rectangle_12" data-name="Rectangle 12" width="315.987" height="40.848" transform="translate(0 0)" fill="none"></rect></clipPath></defs><g id="Group_9" data-name="Group 9" transform="translate(0 0)"><g id="Group_11" data-name="Group 11" clip-path="url(#clip-path)"><path id="Path_1" data-name="Path 1" d="M15.379,40.848A15.086,15.086,0,0,1,0,25.581v-.112A15.169,15.169,0,0,1,15.489,10.091c5.567,0,9.039,1.875,11.8,4.961l-5.125,5.511c-1.874-1.983-3.748-3.251-6.723-3.251-4.192,0-7.168,3.692-7.168,8.048v.109c0,4.521,2.922,8.158,7.5,8.158,2.811,0,4.74-1.211,6.78-3.141l4.9,4.96a14.867,14.867,0,0,1-12.07,5.4" fill="#fff"></path><path id="Path_2" data-name="Path 2" d="M62.615,16.816c-3.471,0-5.733,2.48-6.393,6.284H68.844c-.5-3.747-2.7-6.284-6.229-6.284M76.893,28.337H56.332a6.854,6.854,0,0,0,7.222,5.786,9.678,9.678,0,0,0,7.164-3.03l4.8,4.246a14.779,14.779,0,0,1-12.072,5.509c-8.874,0-15.434-6.227-15.434-15.266V25.47c0-8.432,6.007-15.379,14.606-15.379C72.483,10.091,77,17.753,77,26.132v.11c0,.827-.054,1.323-.109,2.095" fill="#fff"></path><path id="Path_3" data-name="Path 3" d="M97.395,28.282a12.965,12.965,0,0,0-5.347-1.1c-3.583,0-5.789,1.434-5.789,4.08v.109c0,2.259,1.874,3.584,4.578,3.584,3.912,0,6.558-2.152,6.558-5.182Zm-.165,8.709a11.363,11.363,0,0,1-8.93,3.747c-5.567,0-10.143-3.2-10.143-9.039v-.11c0-6.449,4.906-9.426,11.907-9.426a20.957,20.957,0,0,1,7.219,1.213v-.5c0-3.474-2.148-5.4-6.338-5.4a21.759,21.759,0,0,0-8.159,1.6l-2.093-6.4a26.089,26.089,0,0,1,11.465-2.369c9.151,0,13.175,4.74,13.175,12.733V40.188Z" fill="#fff"></path><path id="Path_4" data-name="Path 4" d="M157.526,40.408h-7.607L138.29,10.644h8.875l6.613,19.787,6.671-19.787h8.708Z" fill="#fff"></path><path id="Path_5" data-name="Path 5" d="M182.217,16.816c-3.471,0-5.734,2.48-6.394,6.284h12.625c-.5-3.747-2.7-6.284-6.231-6.284m14.275,11.521H175.935a6.849,6.849,0,0,0,7.221,5.786,9.678,9.678,0,0,0,7.164-3.03l4.8,4.246a14.779,14.779,0,0,1-12.072,5.509c-8.876,0-15.436-6.227-15.436-15.266V25.47c0-8.432,6.01-15.379,14.609-15.379,9.867,0,14.385,7.662,14.385,16.041v.11c0,.827-.055,1.323-.11,2.095" fill="#fff"></path><path id="Path_6" data-name="Path 6" d="M198.862,37.487,217.77,15.273H199.523V11.69h24.035v2.7L204.594,36.6h18.964v3.582h-24.7Z" fill="#fff"></path><path id="Path_7" data-name="Path 7" d="M251.443,26.077v-.11c0-6.119-4.572-11.135-10.582-11.135-6.172,0-10.416,5.016-10.416,11.023v.112c0,6.115,4.52,11.076,10.528,11.076,6.172,0,10.47-4.961,10.47-10.966m-25.353,0v-.11a14.856,14.856,0,0,1,29.711-.112v.112a14.8,14.8,0,0,1-14.94,14.881A14.6,14.6,0,0,1,226.09,26.077" fill="#fff"></path><path id="Path_8" data-name="Path 8" d="M260.152,11.69H264.4v4.961a10.787,10.787,0,0,1,9.755-5.567c6.889,0,10.914,4.63,10.914,11.41V40.187h-4.246V23.541c0-5.293-2.864-8.6-7.881-8.6-4.907,0-8.542,3.582-8.542,8.93V40.187h-4.246Z" fill="#fff"></path><path id="Path_9" data-name="Path 9" d="M311.686,24.258c-.493-5.183-3.472-9.593-9.092-9.593-4.906,0-8.656,4.079-9.263,9.593Zm-8.32,12.9a11.781,11.781,0,0,0,8.982-4.026l2.647,2.37a14.708,14.708,0,0,1-11.744,5.347c-7.824,0-14.22-6.007-14.22-14.881,0-8.27,5.791-14.883,13.672-14.883,8.432,0,13.283,6.723,13.283,15.1,0,.388,0,.829-.054,1.489h-22.6c.607,6.008,5.019,9.483,10.035,9.483" fill="#fff"></path><path id="Path_10" data-name="Path 10" d="M132.976,10.643h-4.995V36.8a3.4,3.4,0,0,0,3.387,3.385h5V14.029a3.4,3.4,0,0,0-3.387-3.386" fill="#fff"></path><path id="Path_11" data-name="Path 11" d="M37.977,16.6V14.028a3.394,3.394,0,0,0-3.387-3.385H29.6V40.187h8.379V29.274c0-7.056,3.419-10.418,8.985-10.418H47.4V10.09c-4.961-.219-7.716,2.427-9.426,6.506" fill="#fff"></path><path id="Path_12" data-name="Path 12" d="M122.033,10.643h-4.185V6.476a3.394,3.394,0,0,0-3.385-3.387h-4.994v.057l-.061-.057v7.554H105.88v4.42a2.708,2.708,0,0,0,2.7,2.7h.784l.045.044v14c0,6.833,3.473,8.874,8.6,8.874a12.354,12.354,0,0,0,6.617-1.71V32.249a8.506,8.506,0,0,1-4.133,1.049c-1.875,0-2.7-.939-2.7-2.867V17.807h6.944V13.341a2.706,2.706,0,0,0-2.7-2.7" fill="#fff"></path><path id="Path_13" data-name="Path 13" d="M102.044,32.071H97.209v4.836a3.288,3.288,0,0,0,3.277,3.277h4.836V35.349a3.286,3.286,0,0,0-3.278-3.278" fill="#fff"></path><path id="Path_14" data-name="Path 14" d="M132.976,0h-4.995V4.994a3.4,3.4,0,0,0,3.387,3.385h5V3.385A3.4,3.4,0,0,0,132.976,0" fill="#d3705a"></path></g></g></svg>