<?xml version="1.0" encoding="UTF-8"?> <svg xmlns="http://www.w3.org/2000/svg" viewBox="0 0 300 90"><defs><style> .cls-1 { fill: #fff; } .cls-2 { fill: #d8908c; } </style></defs><g id="Layer_1" data-name="Layer 1"><g><path class="cls-1" d="m25.38,48.15c-7.75,0-13.44-5.97-13.44-13.34v-.1c0-7.37,5.64-13.44,13.53-13.44,4.86,0,7.9,1.64,10.31,4.34l-4.48,4.82c-1.64-1.73-3.27-2.84-5.87-2.84-3.66,0-6.26,3.23-6.26,7.03v.1c0,3.95,2.55,7.13,6.55,7.13,2.46,0,4.14-1.06,5.92-2.75l4.29,4.33c-2.5,2.75-5.39,4.72-10.55,4.72Z"></path><path class="cls-1" d="m66.65,27.15c-3.03,0-5.01,2.17-5.59,5.49h11.03c-.43-3.27-2.36-5.49-5.44-5.49Zm12.48,10.07h-17.97c.72,3.32,3.04,5.06,6.31,5.06,2.45,0,4.24-.77,6.26-2.65l4.19,3.71c-2.41,2.99-5.88,4.81-10.55,4.81-7.75,0-13.49-5.44-13.49-13.34v-.1c0-7.37,5.25-13.44,12.76-13.44,8.62,0,12.57,6.7,12.57,14.02v.1c0,.72-.05,1.16-.1,1.83Z"></path><path class="cls-1" d="m97.05,37.17c-1.25-.58-2.89-.96-4.67-.96-3.13,0-5.06,1.25-5.06,3.57v.09c0,1.97,1.64,3.13,4,3.13,3.42,0,5.73-1.88,5.73-4.53v-1.3Zm-.14,7.61c-1.78,1.97-4.24,3.27-7.8,3.27-4.86,0-8.86-2.79-8.86-7.9v-.1c0-5.63,4.29-8.24,10.4-8.24,2.6,0,4.48.43,6.31,1.06v-.44c0-3.04-1.88-4.72-5.54-4.72-2.79,0-4.77.53-7.13,1.4l-1.83-5.59c2.84-1.25,5.64-2.07,10.02-2.07,8,0,11.51,4.14,11.51,11.13v14.98l-7.08-2.79Z"></path><polygon class="cls-1" points="149.59 47.77 142.94 47.77 132.78 21.76 140.54 21.76 146.32 39.05 152.15 21.76 159.76 21.76 149.59 47.77"></polygon><path class="cls-1" d="m171.17,27.15c-3.03,0-5.01,2.17-5.59,5.49h11.03c-.44-3.27-2.36-5.49-5.44-5.49Zm12.47,10.07h-17.96c.72,3.32,3.03,5.06,6.31,5.06,2.45,0,4.24-.77,6.26-2.65l4.19,3.71c-2.41,2.99-5.88,4.81-10.55,4.81-7.76,0-13.49-5.44-13.49-13.34v-.1c0-7.37,5.25-13.44,12.77-13.44,8.62,0,12.57,6.7,12.57,14.02v.1c0,.72-.05,1.16-.1,1.83Z"></path><polygon class="cls-1" points="185.71 45.21 202.23 25.8 186.29 25.8 186.29 22.67 207.29 22.67 207.29 25.03 190.72 44.44 207.29 44.44 207.29 47.57 185.71 47.57 185.71 45.21"></polygon><path class="cls-1" d="m231.66,35.24v-.1c0-5.35-4-9.73-9.25-9.73s-9.1,4.38-9.1,9.63v.1c0,5.34,3.95,9.68,9.2,9.68s9.15-4.33,9.15-9.58Zm-22.15,0v-.1c0-7.03,5.49-13.01,13.01-13.01s12.96,5.88,12.96,12.91v.1c0,7.03-5.54,13-13.05,13s-12.91-5.88-12.91-12.91Z"></path><path class="cls-1" d="m239.27,22.67h3.71v4.33c1.64-2.7,4.24-4.86,8.52-4.86,6.02,0,9.54,4.05,9.54,9.97v15.46h-3.71v-14.55c0-4.62-2.5-7.51-6.89-7.51s-7.46,3.13-7.46,7.8v14.26h-3.71v-24.9Z"></path><path class="cls-1" d="m284.3,33.65c-.43-4.53-3.04-8.38-7.95-8.38-4.29,0-7.56,3.56-8.09,8.38h16.04Zm-7.27,11.27c3.42,0,5.83-1.4,7.85-3.52l2.31,2.07c-2.51,2.79-5.54,4.67-10.26,4.67-6.84,0-12.43-5.25-12.43-13,0-7.23,5.06-13.01,11.95-13.01,7.37,0,11.61,5.88,11.61,13.2,0,.34,0,.72-.05,1.3h-19.75c.53,5.25,4.39,8.29,8.77,8.29Z"></path><path class="cls-1" d="m128.14,21.76h-4.36v22.86c0,1.63,1.33,2.96,2.96,2.96h4.36v-22.86c0-1.63-1.33-2.96-2.96-2.96Z"></path><path class="cls-1" d="m45.12,26.96v-2.24c0-1.63-1.33-2.96-2.96-2.96h-4.36v25.82h7.32v-9.54c0-6.17,2.99-9.1,7.85-9.1h.39v-7.66c-4.34-.19-6.74,2.12-8.24,5.69Z"></path><path class="cls-1" d="m118.58,21.76h-3.66v-3.64c0-1.63-1.33-2.96-2.96-2.96h-4.36v.05l-.05-.05v6.6h-3.08v3.86c0,1.3,1.06,2.36,2.36,2.36h.69l.04.04v12.24c0,5.97,3.04,7.75,7.51,7.75,2.46,0,4.24-.58,5.78-1.49v-5.88c-1.06.58-2.26.92-3.61.92-1.64,0-2.36-.82-2.36-2.51v-11.03h6.07v-3.9c0-1.3-1.06-2.36-2.36-2.36Z"></path><path class="cls-1" d="m101.11,40.48h-4.23v4.23c0,1.57,1.29,2.86,2.86,2.86h4.23v-4.22c0-1.58-1.29-2.86-2.86-2.86Z"></path><path class="cls-2" d="m128.14,12.46h-4.36v4.36c0,1.62,1.33,2.96,2.96,2.96h4.36v-4.36c0-1.63-1.33-2.96-2.96-2.96Z"></path></g></g><g id="Layer_2" data-name="Layer 2"><g><path class="cls-2" d="m12.76,68.14c0-1,.18-2,.54-2.99.36-.99.89-1.89,1.58-2.68.7-.79,1.55-1.43,2.55-1.91,1-.49,2.14-.73,3.4-.73,1.52,0,2.82.34,3.9,1.01,1.08.67,1.89,1.55,2.44,2.63l-2.07,1.39c-.23-.5-.52-.92-.84-1.27-.33-.34-.69-.62-1.08-.82-.39-.2-.8-.35-1.22-.43-.42-.09-.83-.13-1.22-.13-.88,0-1.64.18-2.3.53-.66.35-1.21.82-1.65,1.4-.45.58-.78,1.23-1.01,1.95-.23.72-.34,1.44-.34,2.16,0,.81.13,1.59.4,2.32.27.74.64,1.39,1.12,1.95s1.04,1.01,1.7,1.35c.66.34,1.38.5,2.16.5.41,0,.83-.05,1.26-.15.43-.1.84-.27,1.24-.49.4-.23.77-.51,1.1-.86.34-.34.61-.76.83-1.24l2.18,1.24c-.27.63-.64,1.18-1.13,1.66s-1.03.88-1.64,1.21-1.26.58-1.94.75c-.68.17-1.35.26-2.01.26-1.17,0-2.25-.25-3.22-.75-.97-.5-1.81-1.15-2.51-1.96-.7-.81-1.25-1.72-1.64-2.75-.39-1.02-.59-2.07-.59-3.13Z"></path><path class="cls-2" d="m36.8,76.71c-1.19,0-2.27-.24-3.25-.72-.98-.48-1.82-1.11-2.52-1.9-.7-.79-1.25-1.69-1.63-2.71-.38-1.02-.58-2.06-.58-3.12s.2-2.18.61-3.19c.41-1.02.97-1.92,1.68-2.7.71-.78,1.56-1.4,2.54-1.87.98-.46,2.05-.69,3.21-.69s2.27.25,3.25.74c.98.49,1.82,1.14,2.51,1.94.7.8,1.24,1.7,1.62,2.71.38,1.01.58,2.04.58,3.09,0,1.11-.2,2.18-.6,3.19-.4,1.02-.96,1.91-1.68,2.69-.72.77-1.57,1.39-2.55,1.85-.98.46-2.04.69-3.18.69Zm-5.31-8.45c0,.78.12,1.54.38,2.28.25.74.61,1.39,1.07,1.95.46.56,1.02,1.01,1.68,1.35.66.34,1.39.5,2.21.5s1.59-.18,2.24-.53,1.2-.82,1.66-1.4c.45-.58.8-1.23,1.03-1.95.24-.72.35-1.46.35-2.21,0-.8-.13-1.56-.38-2.29-.25-.73-.61-1.37-1.07-1.93s-1.02-1-1.67-1.34c-.65-.34-1.37-.5-2.17-.5-.85,0-1.6.18-2.25.53-.66.35-1.21.81-1.67,1.37-.45.56-.8,1.21-1.04,1.94-.24.73-.36,1.47-.36,2.22Z"></path><path class="cls-2" d="m61.55,76.59v-12l-4.95,9.09h-1.46l-4.98-9.09v12h-2.63v-16.67h2.82l5.52,10.19,5.52-10.19h2.82v16.67h-2.65Z"></path><path class="cls-2" d="m81.97,76.59v-12l-4.95,9.09h-1.46l-4.98-9.09v12h-2.63v-16.67h2.82l5.52,10.19,5.52-10.19h2.82v16.67h-2.65Z"></path><path class="cls-2" d="m95.33,74.34c.88,0,1.6-.17,2.18-.52.58-.34,1.04-.79,1.4-1.35.35-.56.6-1.19.75-1.9.15-.71.22-1.44.22-2.2v-8.45h2.65v8.45c0,1.14-.13,2.22-.4,3.23-.27,1.01-.69,1.89-1.27,2.65s-1.33,1.36-2.24,1.8c-.92.44-2.01.66-3.3.66s-2.45-.23-3.37-.69c-.92-.46-1.66-1.08-2.22-1.85-.56-.77-.97-1.66-1.22-2.66-.25-1-.38-2.04-.38-3.12v-8.45h2.63v8.45c0,.77.07,1.51.22,2.22.15.71.4,1.35.75,1.9.35.56.82,1,1.41,1.34.59.34,1.31.5,2.17.5Z"></path><path class="cls-2" d="m108.67,64.85v11.74h-2.63v-16.67h2.07l9.53,12.02v-12h2.65v16.65h-2.18l-9.44-11.74Z"></path><path class="cls-2" d="m124.04,76.59v-16.67h2.63v16.67h-2.63Z"></path><path class="cls-2" d="m129.37,68.14c0-1,.18-2,.54-2.99.36-.99.89-1.89,1.58-2.68.7-.79,1.55-1.43,2.55-1.91,1-.49,2.14-.73,3.4-.73,1.52,0,2.82.34,3.9,1.01,1.08.67,1.89,1.55,2.44,2.63l-2.07,1.39c-.23-.5-.52-.92-.84-1.27-.33-.34-.69-.62-1.08-.82-.39-.2-.8-.35-1.22-.43-.42-.09-.83-.13-1.22-.13-.88,0-1.64.18-2.3.53-.66.35-1.21.82-1.65,1.4-.45.58-.78,1.23-1.01,1.95-.23.72-.34,1.44-.34,2.16,0,.81.13,1.59.4,2.32.27.74.64,1.39,1.12,1.95s1.04,1.01,1.7,1.35c.66.34,1.38.5,2.16.5.41,0,.83-.05,1.26-.15.43-.1.84-.27,1.24-.49.4-.23.77-.51,1.1-.86.34-.34.61-.76.83-1.24l2.18,1.24c-.27.63-.64,1.18-1.13,1.66s-1.03.88-1.64,1.21-1.26.58-1.94.75c-.68.17-1.35.26-2.01.26-1.17,0-2.25-.25-3.22-.75-.97-.5-1.81-1.15-2.51-1.96-.7-.81-1.25-1.72-1.64-2.75-.39-1.02-.59-2.07-.59-3.13Z"></path><path class="cls-2" d="m151.4,59.92h2.3l6.57,16.67h-2.77l-1.76-4.53h-6.43l-1.74,4.53h-2.79l6.62-16.67Zm3.83,10.19l-2.68-7.16-2.77,7.16h5.45Z"></path><path class="cls-2" d="m174.57,62.25h-5.54v14.34h-2.65v-14.34h-5.56v-2.32h13.76v2.32Z"></path><path class="cls-2" d="m176.8,76.59v-16.67h2.63v16.67h-2.63Z"></path><path class="cls-2" d="m190.11,76.71c-1.19,0-2.27-.24-3.25-.72-.98-.48-1.82-1.11-2.52-1.9-.7-.79-1.25-1.69-1.63-2.71-.38-1.02-.58-2.06-.58-3.12s.2-2.18.61-3.19c.41-1.02.97-1.92,1.68-2.7.71-.78,1.56-1.4,2.54-1.87.98-.46,2.05-.69,3.21-.69s2.27.25,3.25.74c.98.49,1.82,1.14,2.51,1.94.7.8,1.24,1.7,1.62,2.71.38,1.01.58,2.04.58,3.09,0,1.11-.2,2.18-.6,3.19-.4,1.02-.96,1.91-1.68,2.69-.72.77-1.57,1.39-2.55,1.85-.98.46-2.04.69-3.18.69Zm-5.31-8.45c0,.78.12,1.54.38,2.28.25.74.61,1.39,1.07,1.95.46.56,1.02,1.01,1.68,1.35.66.34,1.39.5,2.21.5s1.59-.18,2.24-.53,1.2-.82,1.66-1.4c.45-.58.8-1.23,1.03-1.95.24-.72.35-1.46.35-2.21,0-.8-.13-1.56-.38-2.29-.25-.73-.61-1.37-1.07-1.93s-1.02-1-1.67-1.34c-.65-.34-1.37-.5-2.17-.5-.85,0-1.6.18-2.25.53-.66.35-1.21.81-1.67,1.37-.45.56-.8,1.21-1.04,1.94-.24.73-.36,1.47-.36,2.22Z"></path><path class="cls-2" d="m203.47,64.85v11.74h-2.63v-16.67h2.07l9.53,12.02v-12h2.65v16.65h-2.18l-9.44-11.74Z"></path><path class="cls-2" d="m228.71,63.84c-.16-.17-.38-.36-.68-.55-.3-.2-.65-.38-1.04-.55-.4-.17-.84-.31-1.32-.42s-.97-.16-1.47-.16c-1.11,0-1.93.2-2.45.61-.52.41-.79.97-.79,1.69,0,.41.08.74.25,1,.17.26.42.49.76.68.34.2.77.37,1.29.52.52.15,1.12.31,1.81.48.85.2,1.61.43,2.29.68.68.25,1.26.56,1.73.92.47.36.83.8,1.09,1.33.26.52.39,1.16.39,1.91,0,.85-.16,1.57-.48,2.18-.32.61-.76,1.11-1.31,1.49-.56.38-1.2.67-1.94.85-.74.18-1.53.27-2.37.27-1.27,0-2.49-.19-3.67-.58-1.18-.38-2.25-.94-3.21-1.68l1.2-2.25c.2.2.5.43.88.68.38.25.83.48,1.34.69.51.21,1.06.39,1.66.54.59.15,1.21.22,1.85.22,1.03,0,1.83-.18,2.39-.54.56-.36.85-.89.85-1.6,0-.42-.11-.77-.32-1.06-.21-.28-.51-.53-.9-.74-.39-.21-.87-.4-1.43-.58-.56-.17-1.21-.35-1.92-.54-.83-.22-1.55-.45-2.17-.69s-1.13-.54-1.54-.88-.72-.75-.93-1.21c-.21-.46-.32-1.02-.32-1.68,0-.81.16-1.54.47-2.17.31-.63.74-1.17,1.28-1.6s1.18-.76,1.91-.97c.74-.22,1.53-.33,2.39-.33,1.13,0,2.17.18,3.12.54.96.36,1.79.81,2.51,1.34l-1.2,2.16Z"></path><path class="cls-2" d="m252.68,59.92v16.67h-2.65v-7.35h-8.41v7.35h-2.63v-16.67h2.63v6.97h8.41v-6.97h2.65Z"></path><path class="cls-2" d="m263.39,74.34c.88,0,1.6-.17,2.18-.52.58-.34,1.04-.79,1.4-1.35.35-.56.6-1.19.75-1.9.15-.71.22-1.44.22-2.2v-8.45h2.65v8.45c0,1.14-.13,2.22-.4,3.23-.27,1.01-.69,1.89-1.27,2.65s-1.33,1.36-2.24,1.8c-.92.44-2.01.66-3.3.66s-2.45-.23-3.37-.69c-.92-.46-1.66-1.08-2.22-1.85-.56-.77-.97-1.66-1.22-2.66-.25-1-.38-2.04-.38-3.12v-8.45h2.63v8.45c0,.77.07,1.51.22,2.22.15.71.4,1.35.75,1.9.35.56.82,1,1.41,1.34.59.34,1.31.5,2.17.5Z"></path><path class="cls-2" d="m287.19,72.29c0,.67-.14,1.28-.41,1.81-.27.53-.64.98-1.1,1.35-.46.37-1.01.65-1.63.85-.63.2-1.29.29-2,.29h-7.96v-16.67h8.59c.58,0,1.1.13,1.57.38s.87.58,1.2.97c.33.4.58.85.76,1.36.18.51.27,1.02.27,1.54,0,.81-.21,1.58-.62,2.29-.42.71-1.01,1.24-1.77,1.58.95.28,1.71.79,2.27,1.54.56.74.83,1.65.83,2.71Zm-10.47-10.1v4.91h4.84c.33,0,.63-.06.9-.19.27-.12.52-.29.73-.5.21-.21.38-.47.49-.76.12-.3.18-.63.18-.99,0-.72-.2-1.31-.61-1.77-.41-.46-.92-.69-1.55-.69h-4.98Zm7.77,9.6c0-.34-.06-.67-.18-.99-.12-.31-.27-.59-.47-.82-.2-.23-.43-.42-.72-.56-.28-.14-.59-.21-.92-.21h-5.49v5.09h5.33c.34,0,.67-.07.96-.2.3-.13.56-.31.77-.54.22-.23.39-.49.52-.8.12-.31.19-.63.19-.97Z"></path></g></g></svg> 