<?xml version="1.0" encoding="UTF-8"?> <svg xmlns="http://www.w3.org/2000/svg" viewBox="0 0 300 90"><defs><style> .cls-1 { fill: #fff; } .cls-2 { fill: #0d6a38; } </style></defs><g id="Layer_1" data-name="Layer 1"><g><path class="cls-1" d="m25.38,48.15c-7.75,0-13.44-5.97-13.44-13.34v-.1c0-7.37,5.64-13.44,13.53-13.44,4.86,0,7.9,1.64,10.31,4.34l-4.48,4.82c-1.64-1.73-3.27-2.84-5.87-2.84-3.66,0-6.26,3.23-6.26,7.03v.1c0,3.95,2.55,7.13,6.55,7.13,2.46,0,4.14-1.06,5.92-2.75l4.29,4.33c-2.5,2.75-5.39,4.72-10.55,4.72Z"></path><path class="cls-1" d="m66.65,27.15c-3.03,0-5.01,2.17-5.59,5.49h11.03c-.43-3.27-2.36-5.49-5.44-5.49Zm12.48,10.07h-17.97c.72,3.32,3.04,5.06,6.31,5.06,2.45,0,4.24-.77,6.26-2.65l4.19,3.71c-2.41,2.99-5.88,4.81-10.55,4.81-7.75,0-13.49-5.44-13.49-13.34v-.1c0-7.37,5.25-13.44,12.76-13.44,8.62,0,12.57,6.7,12.57,14.02v.1c0,.72-.05,1.16-.1,1.83Z"></path><path class="cls-1" d="m97.05,37.17c-1.25-.58-2.89-.96-4.67-.96-3.13,0-5.06,1.25-5.06,3.57v.09c0,1.97,1.64,3.13,4,3.13,3.42,0,5.73-1.88,5.73-4.53v-1.3Zm-.14,7.61c-1.78,1.97-4.24,3.27-7.8,3.27-4.86,0-8.86-2.79-8.86-7.9v-.1c0-5.63,4.29-8.24,10.4-8.24,2.6,0,4.48.43,6.31,1.06v-.44c0-3.04-1.88-4.72-5.54-4.72-2.79,0-4.77.53-7.13,1.4l-1.83-5.59c2.84-1.25,5.64-2.07,10.02-2.07,8,0,11.51,4.14,11.51,11.13v14.98l-7.08-2.79Z"></path><polygon class="cls-1" points="149.59 47.77 142.94 47.77 132.78 21.76 140.54 21.76 146.32 39.05 152.15 21.76 159.76 21.76 149.59 47.77"></polygon><path class="cls-1" d="m171.17,27.15c-3.03,0-5.01,2.17-5.59,5.49h11.03c-.44-3.27-2.36-5.49-5.44-5.49Zm12.47,10.07h-17.96c.72,3.32,3.03,5.06,6.31,5.06,2.45,0,4.24-.77,6.26-2.65l4.19,3.71c-2.41,2.99-5.88,4.81-10.55,4.81-7.76,0-13.49-5.44-13.49-13.34v-.1c0-7.37,5.25-13.44,12.77-13.44,8.62,0,12.57,6.7,12.57,14.02v.1c0,.72-.05,1.16-.1,1.83Z"></path><polygon class="cls-1" points="185.71 45.21 202.23 25.8 186.29 25.8 186.29 22.67 207.29 22.67 207.29 25.03 190.72 44.44 207.29 44.44 207.29 47.57 185.71 47.57 185.71 45.21"></polygon><path class="cls-1" d="m231.66,35.24v-.1c0-5.35-4-9.73-9.25-9.73s-9.1,4.38-9.1,9.63v.1c0,5.34,3.95,9.68,9.2,9.68s9.15-4.33,9.15-9.58Zm-22.15,0v-.1c0-7.03,5.49-13.01,13.01-13.01s12.96,5.88,12.96,12.91v.1c0,7.03-5.54,13-13.05,13s-12.91-5.88-12.91-12.91Z"></path><path class="cls-1" d="m239.27,22.67h3.71v4.33c1.64-2.7,4.24-4.86,8.52-4.86,6.02,0,9.54,4.05,9.54,9.97v15.46h-3.71v-14.55c0-4.62-2.5-7.51-6.89-7.51s-7.46,3.13-7.46,7.8v14.26h-3.71v-24.9Z"></path><path class="cls-1" d="m284.3,33.65c-.43-4.53-3.04-8.38-7.95-8.38-4.29,0-7.56,3.56-8.09,8.38h16.04Zm-7.27,11.27c3.42,0,5.83-1.4,7.85-3.52l2.31,2.07c-2.51,2.79-5.54,4.67-10.26,4.67-6.84,0-12.43-5.25-12.43-13,0-7.23,5.06-13.01,11.95-13.01,7.37,0,11.61,5.88,11.61,13.2,0,.34,0,.72-.05,1.3h-19.75c.53,5.25,4.39,8.29,8.77,8.29Z"></path><path class="cls-1" d="m128.14,21.76h-4.36v22.86c0,1.63,1.33,2.96,2.96,2.96h4.36v-22.86c0-1.63-1.33-2.96-2.96-2.96Z"></path><path class="cls-1" d="m45.12,26.96v-2.24c0-1.63-1.33-2.96-2.96-2.96h-4.36v25.82h7.32v-9.54c0-6.17,2.99-9.1,7.85-9.1h.39v-7.66c-4.34-.19-6.74,2.12-8.24,5.69Z"></path><path class="cls-1" d="m118.58,21.76h-3.66v-3.64c0-1.63-1.33-2.96-2.96-2.96h-4.36v.05l-.05-.05v6.6h-3.08v3.86c0,1.3,1.06,2.36,2.36,2.36h.69l.04.04v12.24c0,5.97,3.04,7.75,7.51,7.75,2.46,0,4.24-.58,5.78-1.49v-5.88c-1.06.58-2.26.92-3.61.92-1.64,0-2.36-.82-2.36-2.51v-11.03h6.07v-3.9c0-1.3-1.06-2.36-2.36-2.36Z"></path><path class="cls-1" d="m101.11,40.48h-4.23v4.23c0,1.57,1.29,2.86,2.86,2.86h4.23v-4.22c0-1.58-1.29-2.86-2.86-2.86Z"></path><path class="cls-2" d="m128.14,12.46h-4.36v4.36c0,1.62,1.33,2.96,2.96,2.96h4.36v-4.36c0-1.63-1.33-2.96-2.96-2.96Z"></path></g></g><g id="Layer_2" data-name="Layer 2"><g><path class="cls-2" d="m12.81,67.89c0-1.06.19-2.11.57-3.16.38-1.05.94-1.99,1.67-2.82.73-.83,1.63-1.51,2.69-2.02,1.06-.51,2.25-.77,3.59-.77,1.6,0,2.97.35,4.11,1.06,1.14.71,2,1.63,2.58,2.77l-2.18,1.46c-.25-.53-.54-.97-.89-1.34-.35-.36-.73-.65-1.14-.87-.41-.21-.84-.37-1.29-.46-.45-.09-.88-.14-1.29-.14-.92,0-1.73.19-2.43.56s-1.28.86-1.75,1.47c-.47.61-.83,1.3-1.06,2.06s-.36,1.52-.36,2.28c0,.86.14,1.68.42,2.45s.67,1.46,1.18,2.06c.5.59,1.1,1.07,1.79,1.42s1.45.53,2.28.53c.43,0,.87-.05,1.32-.16s.89-.28,1.31-.52.81-.54,1.16-.9c.35-.36.65-.8.88-1.31l2.3,1.31c-.28.66-.68,1.24-1.19,1.75-.51.5-1.09.93-1.73,1.28s-1.32.61-2.04.79c-.72.18-1.42.27-2.12.27-1.24,0-2.37-.26-3.39-.79-1.02-.53-1.91-1.22-2.65-2.07-.74-.85-1.32-1.82-1.73-2.9-.41-1.08-.62-2.18-.62-3.31Z"></path><path class="cls-2" d="m38.19,74.43c.92,0,1.69-.18,2.3-.54.61-.36,1.1-.84,1.47-1.42s.63-1.25.79-2.01c.16-.75.24-1.52.24-2.31v-8.91h2.8v8.91c0,1.21-.14,2.34-.42,3.4-.28,1.06-.73,2-1.34,2.8-.61.8-1.4,1.43-2.36,1.89-.97.46-2.13.69-3.48.69s-2.59-.24-3.55-.73-1.75-1.14-2.34-1.96c-.59-.82-1.02-1.75-1.29-2.81-.26-1.06-.4-2.15-.4-3.29v-8.91h2.77v8.91c0,.81.08,1.59.24,2.34.16.75.42,1.42.79,2.01.37.59.87,1.06,1.49,1.41.62.36,1.38.53,2.29.53Z"></path><path class="cls-2" d="m49.48,76.8v-17.58h7.65c.79,0,1.52.17,2.19.5.67.33,1.24.76,1.72,1.3.48.54.85,1.15,1.13,1.83.27.69.41,1.38.41,2.09,0,.59-.08,1.16-.25,1.71-.17.54-.4,1.05-.69,1.51-.3.46-.66.86-1.09,1.2-.43.34-.9.59-1.41.76l4.13,6.69h-3.14l-3.81-6.12h-4.06v6.12h-2.77Zm2.77-8.57h4.85c.4,0,.76-.09,1.08-.26.32-.17.6-.41.83-.72.23-.31.41-.66.54-1.05.13-.4.2-.82.2-1.26s-.08-.87-.23-1.26c-.16-.4-.36-.74-.62-1.04-.26-.3-.55-.53-.89-.71-.34-.17-.69-.26-1.05-.26h-4.71v6.56Z"></path><path class="cls-2" d="m65.85,76.8v-17.58h7.65c.79,0,1.52.17,2.19.5.67.33,1.24.76,1.72,1.3.48.54.85,1.15,1.13,1.83.27.69.41,1.38.41,2.09,0,.59-.08,1.16-.25,1.71-.17.54-.4,1.05-.69,1.51-.3.46-.66.86-1.09,1.2-.43.34-.9.59-1.41.76l4.13,6.69h-3.14l-3.81-6.12h-4.06v6.12h-2.77Zm2.77-8.57h4.85c.4,0,.76-.09,1.08-.26.32-.17.6-.41.83-.72.23-.31.41-.66.54-1.05.13-.4.2-.82.2-1.26s-.08-.87-.23-1.26c-.16-.4-.36-.74-.62-1.04-.26-.3-.55-.53-.89-.71-.34-.17-.69-.26-1.05-.26h-4.71v6.56Z"></path><path class="cls-2" d="m94.27,74.35v2.45h-12.06v-17.58h11.84v2.45h-9.06v5h7.85v2.3h-7.85v5.37h9.29Z"></path><path class="cls-2" d="m99.92,64.42v12.38h-2.77v-17.58h2.18l10.05,12.68v-12.65h2.8v17.56h-2.3l-9.96-12.38Z"></path><path class="cls-2" d="m115.02,67.89c0-1.06.19-2.11.57-3.16.38-1.05.94-1.99,1.67-2.82.73-.83,1.63-1.51,2.69-2.02,1.06-.51,2.25-.77,3.59-.77,1.6,0,2.97.35,4.11,1.06,1.14.71,2,1.63,2.58,2.77l-2.18,1.46c-.25-.53-.54-.97-.89-1.34-.35-.36-.73-.65-1.14-.87-.41-.21-.84-.37-1.29-.46-.45-.09-.88-.14-1.29-.14-.92,0-1.73.19-2.43.56s-1.28.86-1.75,1.47c-.47.61-.83,1.3-1.06,2.06s-.36,1.52-.36,2.28c0,.86.14,1.68.42,2.45s.67,1.46,1.18,2.06c.5.59,1.1,1.07,1.79,1.42s1.45.53,2.28.53c.43,0,.87-.05,1.32-.16s.89-.28,1.31-.52.81-.54,1.16-.9c.35-.36.65-.8.88-1.31l2.3,1.31c-.28.66-.68,1.24-1.19,1.75-.51.5-1.09.93-1.73,1.28s-1.32.61-2.04.79c-.72.18-1.42.27-2.12.27-1.24,0-2.37-.26-3.39-.79-1.02-.53-1.91-1.22-2.65-2.07-.74-.85-1.32-1.82-1.73-2.9-.41-1.08-.62-2.18-.62-3.31Z"></path><path class="cls-2" d="m134.36,59.22l4.85,8.82,4.9-8.82h3.05l-6.56,11.29v6.29h-2.77v-6.34l-6.51-11.24h3.05Z"></path><path class="cls-2" d="m167.52,74.35v2.45h-12.06v-17.58h11.84v2.45h-9.06v5h7.85v2.3h-7.85v5.37h9.29Z"></path><path class="cls-2" d="m171.48,59.22l4.88,6.93,4.88-6.93h3.04l-6.44,8.91,6.24,8.67h-3.05l-4.68-6.69-4.68,6.69h-3.07l6.26-8.67-6.46-8.91h3.07Z"></path><path class="cls-2" d="m185.15,67.89c0-1.06.19-2.11.57-3.16.38-1.05.94-1.99,1.67-2.82.73-.83,1.63-1.51,2.69-2.02,1.06-.51,2.25-.77,3.59-.77,1.6,0,2.97.35,4.11,1.06,1.14.71,2,1.63,2.58,2.77l-2.18,1.46c-.25-.53-.54-.97-.89-1.34-.35-.36-.73-.65-1.14-.87-.41-.21-.84-.37-1.29-.46-.45-.09-.88-.14-1.29-.14-.92,0-1.73.19-2.43.56s-1.28.86-1.75,1.47c-.47.61-.83,1.3-1.06,2.06s-.36,1.52-.36,2.28c0,.86.14,1.68.42,2.45s.67,1.46,1.18,2.06c.5.59,1.1,1.07,1.79,1.42s1.45.53,2.28.53c.43,0,.87-.05,1.32-.16s.89-.28,1.31-.52.81-.54,1.16-.9c.35-.36.65-.8.88-1.31l2.3,1.31c-.28.66-.68,1.24-1.19,1.75-.51.5-1.09.93-1.73,1.28s-1.32.61-2.04.79c-.72.18-1.42.27-2.12.27-1.24,0-2.37-.26-3.39-.79-1.02-.53-1.91-1.22-2.65-2.07-.74-.85-1.32-1.82-1.73-2.9-.41-1.08-.62-2.18-.62-3.31Z"></path><path class="cls-2" d="m217.64,59.22v17.58h-2.8v-7.75h-8.87v7.75h-2.77v-17.58h2.77v7.35h8.87v-7.35h2.8Z"></path><path class="cls-2" d="m226.77,59.22h2.43l6.93,17.58h-2.92l-1.86-4.78h-6.79l-1.83,4.78h-2.95l6.98-17.58Zm4.04,10.75l-2.82-7.55-2.92,7.55h5.75Z"></path><path class="cls-2" d="m241.09,64.42v12.38h-2.77v-17.58h2.18l10.05,12.68v-12.65h2.8v17.56h-2.3l-9.96-12.38Z"></path><path class="cls-2" d="m269.61,74.62c-1.49,1.54-3.19,2.3-5.13,2.3-1.17,0-2.26-.24-3.27-.73s-1.88-1.14-2.62-1.97c-.74-.83-1.33-1.78-1.75-2.87-.42-1.09-.63-2.23-.63-3.42s.21-2.32.63-3.39c.42-1.07,1-2.01,1.75-2.82.74-.81,1.63-1.45,2.65-1.92,1.02-.47,2.14-.71,3.34-.71,1.68,0,3.1.35,4.23,1.05,1.14.7,2,1.63,2.58,2.79l-2.13,1.54c-.48-.96-1.14-1.68-1.98-2.15-.84-.48-1.77-.72-2.77-.72-.83,0-1.58.18-2.25.53-.68.35-1.25.83-1.73,1.41-.48.59-.85,1.27-1.1,2.04-.26.78-.38,1.58-.38,2.43,0,.89.14,1.73.43,2.5s.68,1.45,1.19,2.03c.5.58,1.1,1.04,1.8,1.37s1.44.51,2.25.51c.89,0,1.75-.21,2.56-.62.82-.41,1.6-1.06,2.34-1.96v-1.88h-3.69v-2.06h6.02v8.89h-2.33v-2.18Z"></path><path class="cls-2" d="m287.17,74.35v2.45h-12.06v-17.58h11.84v2.45h-9.06v5h7.85v2.3h-7.85v5.37h9.29Z"></path></g></g></svg> 