<?xml version="1.0" encoding="UTF-8"?> <svg xmlns="http://www.w3.org/2000/svg" viewBox="0 0 300 90"><defs><style> .cls-1 { fill: #fff; } .cls-2 { fill: #d21c5e; } </style></defs><g id="Layer_1" data-name="Layer 1"><g><path class="cls-1" d="m25.38,48.15c-7.75,0-13.44-5.97-13.44-13.34v-.1c0-7.37,5.64-13.44,13.53-13.44,4.86,0,7.9,1.64,10.31,4.34l-4.48,4.82c-1.64-1.73-3.27-2.84-5.87-2.84-3.66,0-6.26,3.23-6.26,7.03v.1c0,3.95,2.55,7.13,6.55,7.13,2.46,0,4.14-1.06,5.92-2.75l4.29,4.33c-2.5,2.75-5.39,4.72-10.55,4.72Z"></path><path class="cls-1" d="m66.65,27.15c-3.03,0-5.01,2.17-5.59,5.49h11.03c-.43-3.27-2.36-5.49-5.44-5.49Zm12.48,10.07h-17.97c.72,3.32,3.04,5.06,6.31,5.06,2.45,0,4.24-.77,6.26-2.65l4.19,3.71c-2.41,2.99-5.88,4.81-10.55,4.81-7.75,0-13.49-5.44-13.49-13.34v-.1c0-7.37,5.25-13.44,12.76-13.44,8.62,0,12.57,6.7,12.57,14.02v.1c0,.72-.05,1.16-.1,1.83Z"></path><path class="cls-1" d="m97.05,37.17c-1.25-.58-2.89-.96-4.67-.96-3.13,0-5.06,1.25-5.06,3.57v.09c0,1.97,1.64,3.13,4,3.13,3.42,0,5.73-1.88,5.73-4.53v-1.3Zm-.14,7.61c-1.78,1.97-4.24,3.27-7.8,3.27-4.86,0-8.86-2.79-8.86-7.9v-.1c0-5.63,4.29-8.24,10.4-8.24,2.6,0,4.48.43,6.31,1.06v-.44c0-3.04-1.88-4.72-5.54-4.72-2.79,0-4.77.53-7.13,1.4l-1.83-5.59c2.84-1.25,5.64-2.07,10.02-2.07,8,0,11.51,4.14,11.51,11.13v14.98l-7.08-2.79Z"></path><polygon class="cls-1" points="149.59 47.77 142.94 47.77 132.78 21.76 140.54 21.76 146.32 39.05 152.15 21.76 159.76 21.76 149.59 47.77"></polygon><path class="cls-1" d="m171.17,27.15c-3.03,0-5.01,2.17-5.59,5.49h11.03c-.44-3.27-2.36-5.49-5.44-5.49Zm12.47,10.07h-17.96c.72,3.32,3.03,5.06,6.31,5.06,2.45,0,4.24-.77,6.26-2.65l4.19,3.71c-2.41,2.99-5.88,4.81-10.55,4.81-7.76,0-13.49-5.44-13.49-13.34v-.1c0-7.37,5.25-13.44,12.77-13.44,8.62,0,12.57,6.7,12.57,14.02v.1c0,.72-.05,1.16-.1,1.83Z"></path><polygon class="cls-1" points="185.71 45.21 202.23 25.8 186.29 25.8 186.29 22.67 207.29 22.67 207.29 25.03 190.72 44.44 207.29 44.44 207.29 47.57 185.71 47.57 185.71 45.21"></polygon><path class="cls-1" d="m231.66,35.24v-.1c0-5.35-4-9.73-9.25-9.73s-9.1,4.38-9.1,9.63v.1c0,5.34,3.95,9.68,9.2,9.68s9.15-4.33,9.15-9.58Zm-22.15,0v-.1c0-7.03,5.49-13.01,13.01-13.01s12.96,5.88,12.96,12.91v.1c0,7.03-5.54,13-13.05,13s-12.91-5.88-12.91-12.91Z"></path><path class="cls-1" d="m239.27,22.67h3.71v4.33c1.64-2.7,4.24-4.86,8.52-4.86,6.02,0,9.54,4.05,9.54,9.97v15.46h-3.71v-14.55c0-4.62-2.5-7.51-6.89-7.51s-7.46,3.13-7.46,7.8v14.26h-3.71v-24.9Z"></path><path class="cls-1" d="m284.3,33.65c-.43-4.53-3.04-8.38-7.95-8.38-4.29,0-7.56,3.56-8.09,8.38h16.04Zm-7.27,11.27c3.42,0,5.83-1.4,7.85-3.52l2.31,2.07c-2.51,2.79-5.54,4.67-10.26,4.67-6.84,0-12.43-5.25-12.43-13,0-7.23,5.06-13.01,11.95-13.01,7.37,0,11.61,5.88,11.61,13.2,0,.34,0,.72-.05,1.3h-19.75c.53,5.25,4.39,8.29,8.77,8.29Z"></path><path class="cls-1" d="m128.14,21.76h-4.36v22.86c0,1.63,1.33,2.96,2.96,2.96h4.36v-22.86c0-1.63-1.33-2.96-2.96-2.96Z"></path><path class="cls-1" d="m45.12,26.96v-2.24c0-1.63-1.33-2.96-2.96-2.96h-4.36v25.82h7.32v-9.54c0-6.17,2.99-9.1,7.85-9.1h.39v-7.66c-4.34-.19-6.74,2.12-8.24,5.69Z"></path><path class="cls-1" d="m118.58,21.76h-3.66v-3.64c0-1.63-1.33-2.96-2.96-2.96h-4.36v.05l-.05-.05v6.6h-3.08v3.86c0,1.3,1.06,2.36,2.36,2.36h.69l.04.04v12.24c0,5.97,3.04,7.75,7.51,7.75,2.46,0,4.24-.58,5.78-1.49v-5.88c-1.06.58-2.26.92-3.61.92-1.64,0-2.36-.82-2.36-2.51v-11.03h6.07v-3.9c0-1.3-1.06-2.36-2.36-2.36Z"></path><path class="cls-1" d="m101.11,40.48h-4.23v4.23c0,1.57,1.29,2.86,2.86,2.86h4.23v-4.22c0-1.58-1.29-2.86-2.86-2.86Z"></path><path class="cls-2" d="m128.14,12.46h-4.36v4.36c0,1.62,1.33,2.96,2.96,2.96h4.36v-4.36c0-1.63-1.33-2.96-2.96-2.96Z"></path></g></g><g id="Layer_2" data-name="Layer 2"><g><path class="cls-2" d="m24.07,73.66v2.12h-10.42v-15.19h10.22v2.12h-7.83v4.32h6.78v1.99h-6.78v4.64h8.02Z"></path><path class="cls-2" d="m39.32,75.78v-10.93l-4.51,8.28h-1.33l-4.54-8.28v10.93h-2.4v-15.19h2.57l5.03,9.28,5.03-9.28h2.57v15.19h-2.42Z"></path><path class="cls-2" d="m45.16,75.78v-15.19h6.37c.68,0,1.32.14,1.89.43.58.29,1.07.66,1.49,1.12.41.46.74.99.97,1.58.24.59.35,1.19.35,1.81s-.11,1.26-.33,1.85c-.22.59-.53,1.12-.93,1.58-.4.46-.88.83-1.44,1.11-.56.28-1.19.42-1.87.42h-4.11v5.28h-2.4Zm2.4-7.4h3.96c.34,0,.65-.07.93-.21.28-.14.52-.34.72-.6.2-.26.36-.56.47-.9.11-.34.17-.72.17-1.13s-.06-.81-.19-1.16-.31-.64-.54-.89c-.23-.25-.49-.44-.78-.58-.29-.14-.6-.2-.91-.2h-3.83v5.67Z"></path><path class="cls-2" d="m58.48,75.78v-15.19h2.4v13.07h8.15v2.12h-10.55Z"></path><path class="cls-2" d="m77.29,75.88c-1.08,0-2.07-.22-2.96-.65s-1.66-1.01-2.3-1.73c-.64-.72-1.14-1.54-1.49-2.47-.35-.93-.52-1.88-.52-2.84s.18-1.98.56-2.91c.37-.93.88-1.75,1.53-2.46.65-.71,1.42-1.28,2.31-1.7.89-.42,1.86-.63,2.92-.63s2.07.22,2.96.67,1.65,1.04,2.29,1.76c.63.73,1.13,1.55,1.48,2.47s.52,1.86.52,2.81c0,1.01-.18,1.98-.55,2.91-.36.93-.87,1.74-1.53,2.45s-1.43,1.27-2.32,1.69c-.89.42-1.86.63-2.9.63Zm-4.83-7.7c0,.71.11,1.4.34,2.07.23.67.55,1.26.97,1.78.42.51.93.92,1.53,1.23.6.31,1.27.46,2.01.46s1.45-.16,2.04-.48,1.09-.75,1.51-1.27c.41-.53.73-1.12.94-1.77s.32-1.33.32-2.01c0-.73-.11-1.42-.34-2.09-.23-.66-.55-1.25-.97-1.75-.42-.51-.93-.91-1.52-1.22-.59-.31-1.25-.46-1.98-.46-.77,0-1.46.16-2.05.48s-1.11.74-1.52,1.25c-.41.51-.73,1.1-.95,1.76s-.33,1.34-.33,2.02Z"></path><path class="cls-2" d="m88.17,60.59l4.19,7.62,4.24-7.62h2.63l-5.67,9.75v5.43h-2.4v-5.48l-5.63-9.71h2.63Z"></path><path class="cls-2" d="m113.88,75.78v-10.93l-4.51,8.28h-1.33l-4.54-8.28v10.93h-2.4v-15.19h2.57l5.03,9.28,5.03-9.28h2.57v15.19h-2.42Z"></path><path class="cls-2" d="m130.14,73.66v2.12h-10.42v-15.19h10.22v2.12h-7.83v4.32h6.78v1.99h-6.78v4.64h8.02Z"></path><path class="cls-2" d="m135.02,65.08v10.69h-2.4v-15.19h1.88l8.68,10.95v-10.93h2.42v15.17h-1.99l-8.6-10.69Z"></path><path class="cls-2" d="m160.17,62.71h-5.05v13.07h-2.42v-13.07h-5.07v-2.12h12.53v2.12Z"></path><path class="cls-2" d="m176.47,64.16c-.14-.16-.35-.32-.62-.5-.27-.18-.59-.35-.95-.5-.36-.16-.76-.29-1.2-.38s-.88-.15-1.34-.15c-1.01,0-1.76.19-2.24.56-.48.37-.72.88-.72,1.54,0,.37.07.67.22.91.15.24.38.44.69.62.31.18.71.34,1.18.47.47.14,1.02.28,1.65.44.77.19,1.46.39,2.08.62.62.23,1.14.51,1.57.83s.76.73,1,1.21c.24.48.35,1.06.35,1.74,0,.77-.15,1.43-.44,1.99-.29.56-.69,1.01-1.2,1.36-.51.35-1.09.61-1.76.77-.67.16-1.39.25-2.16.25-1.16,0-2.27-.17-3.35-.52-1.08-.35-2.05-.86-2.92-1.53l1.09-2.05c.18.19.45.39.8.62.35.23.76.44,1.22.63.46.19.97.36,1.51.49.54.14,1.1.2,1.69.2.94,0,1.67-.16,2.18-.49s.77-.81.77-1.45c0-.39-.1-.71-.29-.96-.19-.26-.47-.48-.82-.67-.36-.19-.79-.37-1.3-.52-.51-.16-1.1-.32-1.75-.49-.76-.2-1.42-.41-1.98-.63s-1.03-.49-1.4-.8c-.37-.31-.65-.68-.84-1.1-.19-.42-.29-.93-.29-1.53,0-.74.14-1.4.43-1.98.29-.58.67-1.06,1.17-1.45.49-.39,1.07-.69,1.74-.89.67-.2,1.4-.3,2.18-.3,1.03,0,1.97.16,2.84.49s1.63.73,2.29,1.22l-1.09,1.97Z"></path><path class="cls-2" d="m186.87,75.88c-1.08,0-2.07-.22-2.96-.65s-1.66-1.01-2.3-1.73c-.64-.72-1.14-1.54-1.49-2.47-.35-.93-.52-1.88-.52-2.84s.18-1.98.56-2.91c.37-.93.88-1.75,1.53-2.46.65-.71,1.42-1.28,2.31-1.7.89-.42,1.86-.63,2.92-.63s2.07.22,2.96.67,1.65,1.04,2.29,1.76c.63.73,1.13,1.55,1.48,2.47s.52,1.86.52,2.81c0,1.01-.18,1.98-.55,2.91-.36.93-.87,1.74-1.53,2.45s-1.43,1.27-2.32,1.69c-.89.42-1.86.63-2.9.63Zm-4.83-7.7c0,.71.11,1.4.34,2.07.23.67.55,1.26.97,1.78.42.51.93.92,1.53,1.23.6.31,1.27.46,2.01.46s1.45-.16,2.04-.48,1.09-.75,1.51-1.27c.41-.53.73-1.12.94-1.77s.32-1.33.32-2.01c0-.73-.11-1.42-.34-2.09-.23-.66-.55-1.25-.97-1.75-.42-.51-.93-.91-1.52-1.22-.59-.31-1.25-.46-1.98-.46-.77,0-1.46.16-2.05.48s-1.11.74-1.52,1.25c-.41.51-.73,1.1-.95,1.76s-.33,1.34-.33,2.02Z"></path><path class="cls-2" d="m196.64,75.78v-15.19h2.4v13.07h8.15v2.12h-10.55Z"></path><path class="cls-2" d="m215.46,73.72c.8,0,1.46-.16,1.99-.47.53-.31.95-.72,1.27-1.23.32-.51.55-1.08.68-1.73.13-.65.2-1.32.2-2v-7.7h2.42v7.7c0,1.04-.12,2.02-.36,2.94-.24.92-.63,1.73-1.16,2.42-.53.69-1.21,1.24-2.04,1.64-.83.4-1.84.6-3,.6s-2.24-.21-3.07-.63c-.83-.42-1.51-.98-2.02-1.69-.51-.71-.88-1.52-1.11-2.43-.23-.91-.34-1.86-.34-2.84v-7.7h2.4v7.7c0,.7.07,1.37.2,2.02.14.65.36,1.23.68,1.73.32.51.75.91,1.28,1.22.53.31,1.19.46,1.98.46Z"></path><path class="cls-2" d="m236.36,62.71h-5.05v13.07h-2.42v-13.07h-5.07v-2.12h12.53v2.12Z"></path><path class="cls-2" d="m238.39,75.78v-15.19h2.4v15.19h-2.4Z"></path><path class="cls-2" d="m250.52,75.88c-1.08,0-2.07-.22-2.96-.65s-1.66-1.01-2.3-1.73c-.64-.72-1.14-1.54-1.49-2.47-.35-.93-.52-1.88-.52-2.84s.18-1.98.56-2.91c.37-.93.88-1.75,1.53-2.46.65-.71,1.42-1.28,2.31-1.7.89-.42,1.86-.63,2.92-.63s2.07.22,2.96.67,1.65,1.04,2.29,1.76c.63.73,1.13,1.55,1.48,2.47s.52,1.86.52,2.81c0,1.01-.18,1.98-.55,2.91-.36.93-.87,1.74-1.53,2.45s-1.43,1.27-2.32,1.69c-.89.42-1.86.63-2.9.63Zm-4.83-7.7c0,.71.11,1.4.34,2.07.23.67.55,1.26.97,1.78.42.51.93.92,1.53,1.23.6.31,1.27.46,2.01.46s1.45-.16,2.04-.48,1.09-.75,1.51-1.27c.41-.53.73-1.12.94-1.77s.32-1.33.32-2.01c0-.73-.11-1.42-.34-2.09-.23-.66-.55-1.25-.97-1.75-.42-.51-.93-.91-1.52-1.22-.59-.31-1.25-.46-1.98-.46-.77,0-1.46.16-2.05.48s-1.11.74-1.52,1.25c-.41.51-.73,1.1-.95,1.76s-.33,1.34-.33,2.02Z"></path><path class="cls-2" d="m262.69,65.08v10.69h-2.4v-15.19h1.88l8.68,10.95v-10.93h2.42v15.17h-1.99l-8.6-10.69Z"></path><path class="cls-2" d="m285.69,64.16c-.14-.16-.35-.32-.62-.5-.27-.18-.59-.35-.95-.5-.36-.16-.76-.29-1.2-.38s-.88-.15-1.34-.15c-1.01,0-1.76.19-2.24.56-.48.37-.72.88-.72,1.54,0,.37.07.67.22.91.15.24.38.44.69.62.31.18.71.34,1.18.47.47.14,1.02.28,1.65.44.77.19,1.46.39,2.08.62.62.23,1.14.51,1.57.83s.76.73,1,1.21c.24.48.35,1.06.35,1.74,0,.77-.15,1.43-.44,1.99-.29.56-.69,1.01-1.2,1.36-.51.35-1.09.61-1.76.77-.67.16-1.39.25-2.16.25-1.16,0-2.27-.17-3.35-.52-1.08-.35-2.05-.86-2.92-1.53l1.09-2.05c.18.19.45.39.8.62.35.23.76.44,1.22.63.46.19.97.36,1.51.49.54.14,1.1.2,1.69.2.94,0,1.67-.16,2.18-.49s.77-.81.77-1.45c0-.39-.1-.71-.29-.96-.19-.26-.47-.48-.82-.67-.36-.19-.79-.37-1.3-.52-.51-.16-1.1-.32-1.75-.49-.76-.2-1.42-.41-1.98-.63s-1.03-.49-1.4-.8c-.37-.31-.65-.68-.84-1.1-.19-.42-.29-.93-.29-1.53,0-.74.14-1.4.43-1.98.29-.58.67-1.06,1.17-1.45.49-.39,1.07-.69,1.74-.89.67-.2,1.4-.3,2.18-.3,1.03,0,1.97.16,2.84.49s1.63.73,2.29,1.22l-1.09,1.97Z"></path></g></g></svg> 