<?xml version="1.0" encoding="UTF-8"?> <svg xmlns="http://www.w3.org/2000/svg" viewBox="0 0 300 90"><defs><style> .cls-1 { fill: #fff; } .cls-2 { fill: #909294; } </style></defs><g id="Layer_1" data-name="Layer 1"><g><path class="cls-1" d="m25.38,48.15c-7.75,0-13.44-5.97-13.44-13.34v-.1c0-7.37,5.64-13.44,13.53-13.44,4.86,0,7.9,1.64,10.31,4.34l-4.48,4.82c-1.64-1.73-3.27-2.84-5.87-2.84-3.66,0-6.26,3.23-6.26,7.03v.1c0,3.95,2.55,7.13,6.55,7.13,2.46,0,4.14-1.06,5.92-2.75l4.29,4.33c-2.5,2.75-5.39,4.72-10.55,4.72Z"></path><path class="cls-1" d="m66.65,27.15c-3.03,0-5.01,2.17-5.59,5.49h11.03c-.43-3.27-2.36-5.49-5.44-5.49Zm12.48,10.07h-17.97c.72,3.32,3.04,5.06,6.31,5.06,2.45,0,4.24-.77,6.26-2.65l4.19,3.71c-2.41,2.99-5.88,4.81-10.55,4.81-7.75,0-13.49-5.44-13.49-13.34v-.1c0-7.37,5.25-13.44,12.76-13.44,8.62,0,12.57,6.7,12.57,14.02v.1c0,.72-.05,1.16-.1,1.83Z"></path><path class="cls-1" d="m97.05,37.17c-1.25-.58-2.89-.96-4.67-.96-3.13,0-5.06,1.25-5.06,3.57v.09c0,1.97,1.64,3.13,4,3.13,3.42,0,5.73-1.88,5.73-4.53v-1.3Zm-.14,7.61c-1.78,1.97-4.24,3.27-7.8,3.27-4.86,0-8.86-2.79-8.86-7.9v-.1c0-5.63,4.29-8.24,10.4-8.24,2.6,0,4.48.43,6.31,1.06v-.44c0-3.04-1.88-4.72-5.54-4.72-2.79,0-4.77.53-7.13,1.4l-1.83-5.59c2.84-1.25,5.64-2.07,10.02-2.07,8,0,11.51,4.14,11.51,11.13v14.98l-7.08-2.79Z"></path><polygon class="cls-1" points="149.59 47.77 142.94 47.77 132.78 21.76 140.54 21.76 146.32 39.05 152.15 21.76 159.76 21.76 149.59 47.77"></polygon><path class="cls-1" d="m171.17,27.15c-3.03,0-5.01,2.17-5.59,5.49h11.03c-.44-3.27-2.36-5.49-5.44-5.49Zm12.47,10.07h-17.96c.72,3.32,3.03,5.06,6.31,5.06,2.45,0,4.24-.77,6.26-2.65l4.19,3.71c-2.41,2.99-5.88,4.81-10.55,4.81-7.76,0-13.49-5.44-13.49-13.34v-.1c0-7.37,5.25-13.44,12.77-13.44,8.62,0,12.57,6.7,12.57,14.02v.1c0,.72-.05,1.16-.1,1.83Z"></path><polygon class="cls-1" points="185.71 45.21 202.23 25.8 186.29 25.8 186.29 22.67 207.29 22.67 207.29 25.03 190.72 44.44 207.29 44.44 207.29 47.57 185.71 47.57 185.71 45.21"></polygon><path class="cls-1" d="m231.66,35.24v-.1c0-5.35-4-9.73-9.25-9.73s-9.1,4.38-9.1,9.63v.1c0,5.34,3.95,9.68,9.2,9.68s9.15-4.33,9.15-9.58Zm-22.15,0v-.1c0-7.03,5.49-13.01,13.01-13.01s12.96,5.88,12.96,12.91v.1c0,7.03-5.54,13-13.05,13s-12.91-5.88-12.91-12.91Z"></path><path class="cls-1" d="m239.27,22.67h3.71v4.33c1.64-2.7,4.24-4.86,8.52-4.86,6.02,0,9.54,4.05,9.54,9.97v15.46h-3.71v-14.55c0-4.62-2.5-7.51-6.89-7.51s-7.46,3.13-7.46,7.8v14.26h-3.71v-24.9Z"></path><path class="cls-1" d="m284.3,33.65c-.43-4.53-3.04-8.38-7.95-8.38-4.29,0-7.56,3.56-8.09,8.38h16.04Zm-7.27,11.27c3.42,0,5.83-1.4,7.85-3.52l2.31,2.07c-2.51,2.79-5.54,4.67-10.26,4.67-6.84,0-12.43-5.25-12.43-13,0-7.23,5.06-13.01,11.95-13.01,7.37,0,11.61,5.88,11.61,13.2,0,.34,0,.72-.05,1.3h-19.75c.53,5.25,4.39,8.29,8.77,8.29Z"></path><path class="cls-1" d="m128.14,21.76h-4.36v22.86c0,1.63,1.33,2.96,2.96,2.96h4.36v-22.86c0-1.63-1.33-2.96-2.96-2.96Z"></path><path class="cls-1" d="m45.12,26.96v-2.24c0-1.63-1.33-2.96-2.96-2.96h-4.36v25.82h7.32v-9.54c0-6.17,2.99-9.1,7.85-9.1h.39v-7.66c-4.34-.19-6.74,2.12-8.24,5.69Z"></path><path class="cls-1" d="m118.58,21.76h-3.66v-3.64c0-1.63-1.33-2.96-2.96-2.96h-4.36v.05l-.05-.05v6.6h-3.08v3.86c0,1.3,1.06,2.36,2.36,2.36h.69l.04.04v12.24c0,5.97,3.04,7.75,7.51,7.75,2.46,0,4.24-.58,5.78-1.49v-5.88c-1.06.58-2.26.92-3.61.92-1.64,0-2.36-.82-2.36-2.51v-11.03h6.07v-3.9c0-1.3-1.06-2.36-2.36-2.36Z"></path><path class="cls-1" d="m101.11,40.48h-4.23v4.23c0,1.57,1.29,2.86,2.86,2.86h4.23v-4.22c0-1.58-1.29-2.86-2.86-2.86Z"></path><path class="cls-2" d="m128.14,12.46h-4.36v4.36c0,1.62,1.33,2.96,2.96,2.96h4.36v-4.36c0-1.63-1.33-2.96-2.96-2.96Z"></path></g></g><g id="Layer_2" data-name="Layer 2"><g><path class="cls-2" d="m13.94,77.01v-17.75h2.8v15.27h9.53v2.48h-12.32Z"></path><path class="cls-2" d="m40.71,74.53v2.48h-12.17v-17.75h11.95v2.48h-9.15v5.05h7.92v2.33h-7.92v5.42h9.38Z"></path><path class="cls-2" d="m56.04,74.81c-1.5,1.55-3.22,2.33-5.18,2.33-1.18,0-2.28-.25-3.3-.74-1.02-.49-1.9-1.15-2.65-1.99-.75-.83-1.34-1.8-1.76-2.9s-.64-2.25-.64-3.45.21-2.34.64-3.42c.42-1.08,1.01-2.03,1.76-2.85.75-.82,1.64-1.46,2.67-1.94,1.03-.48,2.16-.71,3.38-.71,1.7,0,3.12.35,4.27,1.06,1.15.71,2.02,1.65,2.6,2.81l-2.15,1.55c-.48-.97-1.15-1.69-2-2.17-.85-.48-1.78-.73-2.8-.73-.83,0-1.59.18-2.28.54s-1.27.83-1.75,1.42c-.48.59-.85,1.28-1.11,2.06-.26.78-.39,1.6-.39,2.45,0,.9.15,1.74.44,2.52.29.78.69,1.47,1.2,2.05.51.58,1.11,1.05,1.81,1.39.7.34,1.46.51,2.27.51.9,0,1.76-.21,2.59-.62.83-.42,1.61-1.08,2.36-1.98v-1.9h-3.72v-2.08h6.07v8.98h-2.35v-2.2Z"></path><path class="cls-2" d="m66.81,59.26h2.45l7,17.75h-2.95l-1.88-4.83h-6.85l-1.85,4.83h-2.97l7.05-17.75Zm4.07,10.85l-2.85-7.62-2.95,7.62h5.8Z"></path><path class="cls-2" d="m78.46,77.01v-17.75h2.8v15.27h9.53v2.48h-12.33Z"></path></g></g></svg> 