<?xml version="1.0" encoding="UTF-8"?> <svg xmlns="http://www.w3.org/2000/svg" viewBox="0 0 300 90"><defs><style> .cls-1 { fill: #fff; } .cls-2 { fill: #1cb095; } </style></defs><g id="Layer_1" data-name="Layer 1"><g><path class="cls-1" d="m25.38,48.15c-7.75,0-13.44-5.97-13.44-13.34v-.1c0-7.37,5.64-13.44,13.53-13.44,4.86,0,7.9,1.64,10.31,4.34l-4.48,4.82c-1.64-1.73-3.27-2.84-5.87-2.84-3.66,0-6.26,3.23-6.26,7.03v.1c0,3.95,2.55,7.13,6.55,7.13,2.46,0,4.14-1.06,5.92-2.75l4.29,4.33c-2.5,2.75-5.39,4.72-10.55,4.72Z"></path><path class="cls-1" d="m66.65,27.15c-3.03,0-5.01,2.17-5.59,5.49h11.03c-.43-3.27-2.36-5.49-5.44-5.49Zm12.48,10.07h-17.97c.72,3.32,3.04,5.06,6.31,5.06,2.45,0,4.24-.77,6.26-2.65l4.19,3.71c-2.41,2.99-5.88,4.81-10.55,4.81-7.75,0-13.49-5.44-13.49-13.34v-.1c0-7.37,5.25-13.44,12.76-13.44,8.62,0,12.57,6.7,12.57,14.02v.1c0,.72-.05,1.16-.1,1.83Z"></path><path class="cls-1" d="m97.05,37.17c-1.25-.58-2.89-.96-4.67-.96-3.13,0-5.06,1.25-5.06,3.57v.09c0,1.97,1.64,3.13,4,3.13,3.42,0,5.73-1.88,5.73-4.53v-1.3Zm-.14,7.61c-1.78,1.97-4.24,3.27-7.8,3.27-4.86,0-8.86-2.79-8.86-7.9v-.1c0-5.63,4.29-8.24,10.4-8.24,2.6,0,4.48.43,6.31,1.06v-.44c0-3.04-1.88-4.72-5.54-4.72-2.79,0-4.77.53-7.13,1.4l-1.83-5.59c2.84-1.25,5.64-2.07,10.02-2.07,8,0,11.51,4.14,11.51,11.13v14.98l-7.08-2.79Z"></path><polygon class="cls-1" points="149.59 47.77 142.94 47.77 132.78 21.76 140.54 21.76 146.32 39.05 152.15 21.76 159.76 21.76 149.59 47.77"></polygon><path class="cls-1" d="m171.17,27.15c-3.03,0-5.01,2.17-5.59,5.49h11.03c-.44-3.27-2.36-5.49-5.44-5.49Zm12.47,10.07h-17.96c.72,3.32,3.03,5.06,6.31,5.06,2.45,0,4.24-.77,6.26-2.65l4.19,3.71c-2.41,2.99-5.88,4.81-10.55,4.81-7.76,0-13.49-5.44-13.49-13.34v-.1c0-7.37,5.25-13.44,12.77-13.44,8.62,0,12.57,6.7,12.57,14.02v.1c0,.72-.05,1.16-.1,1.83Z"></path><polygon class="cls-1" points="185.71 45.21 202.23 25.8 186.29 25.8 186.29 22.67 207.29 22.67 207.29 25.03 190.72 44.44 207.29 44.44 207.29 47.57 185.71 47.57 185.71 45.21"></polygon><path class="cls-1" d="m231.66,35.24v-.1c0-5.35-4-9.73-9.25-9.73s-9.1,4.38-9.1,9.63v.1c0,5.34,3.95,9.68,9.2,9.68s9.15-4.33,9.15-9.58Zm-22.15,0v-.1c0-7.03,5.49-13.01,13.01-13.01s12.96,5.88,12.96,12.91v.1c0,7.03-5.54,13-13.05,13s-12.91-5.88-12.91-12.91Z"></path><path class="cls-1" d="m239.27,22.67h3.71v4.33c1.64-2.7,4.24-4.86,8.52-4.86,6.02,0,9.54,4.05,9.54,9.97v15.46h-3.71v-14.55c0-4.62-2.5-7.51-6.89-7.51s-7.46,3.13-7.46,7.8v14.26h-3.71v-24.9Z"></path><path class="cls-1" d="m284.3,33.65c-.43-4.53-3.04-8.38-7.95-8.38-4.29,0-7.56,3.56-8.09,8.38h16.04Zm-7.27,11.27c3.42,0,5.83-1.4,7.85-3.52l2.31,2.07c-2.51,2.79-5.54,4.67-10.26,4.67-6.84,0-12.43-5.25-12.43-13,0-7.23,5.06-13.01,11.95-13.01,7.37,0,11.61,5.88,11.61,13.2,0,.34,0,.72-.05,1.3h-19.75c.53,5.25,4.39,8.29,8.77,8.29Z"></path><path class="cls-1" d="m128.14,21.76h-4.36v22.86c0,1.63,1.33,2.96,2.96,2.96h4.36v-22.86c0-1.63-1.33-2.96-2.96-2.96Z"></path><path class="cls-1" d="m45.12,26.96v-2.24c0-1.63-1.33-2.96-2.96-2.96h-4.36v25.82h7.32v-9.54c0-6.17,2.99-9.1,7.85-9.1h.39v-7.66c-4.34-.19-6.74,2.12-8.24,5.69Z"></path><path class="cls-1" d="m118.58,21.76h-3.66v-3.64c0-1.63-1.33-2.96-2.96-2.96h-4.36v.05l-.05-.05v6.6h-3.08v3.86c0,1.3,1.06,2.36,2.36,2.36h.69l.04.04v12.24c0,5.97,3.04,7.75,7.51,7.75,2.46,0,4.24-.58,5.78-1.49v-5.88c-1.06.58-2.26.92-3.61.92-1.64,0-2.36-.82-2.36-2.51v-11.03h6.07v-3.9c0-1.3-1.06-2.36-2.36-2.36Z"></path><path class="cls-1" d="m101.11,40.48h-4.23v4.23c0,1.57,1.29,2.86,2.86,2.86h4.23v-4.22c0-1.58-1.29-2.86-2.86-2.86Z"></path><path class="cls-2" d="m128.14,12.46h-4.36v4.36c0,1.62,1.33,2.96,2.96,2.96h4.36v-4.36c0-1.63-1.33-2.96-2.96-2.96Z"></path></g></g><g id="Layer_2" data-name="Layer 2"><g><path class="cls-2" d="m26.96,61.73h-5.9v15.27h-2.83v-15.27h-5.92v-2.48h14.65v2.48Z"></path><path class="cls-2" d="m34.56,59.26h2.45l7,17.75h-2.95l-1.88-4.83h-6.85l-1.85,4.83h-2.98l7.05-17.75Zm4.07,10.85l-2.85-7.62-2.95,7.62h5.8Z"></path><path class="cls-2" d="m47.31,59.26l4.92,7,4.93-7h3.07l-6.5,9,6.3,8.75h-3.08l-4.73-6.75-4.73,6.75h-3.1l6.32-8.75-6.52-9h3.1Z"></path><path class="cls-2" d="m80.11,77.01l-1.62-1.7c-.73.63-1.54,1.12-2.41,1.45s-1.79.5-2.74.5c-.87,0-1.66-.13-2.38-.4-.72-.27-1.33-.63-1.85-1.09-.52-.46-.92-1-1.2-1.62-.28-.62-.42-1.29-.42-1.99,0-.57.09-1.09.26-1.57.18-.48.41-.93.71-1.35.3-.42.65-.8,1.05-1.15.4-.35.82-.68,1.25-.98-.38-.42-.7-.8-.96-1.15-.26-.35-.47-.68-.62-.99-.16-.31-.28-.61-.35-.9-.08-.29-.11-.6-.11-.91,0-.6.12-1.15.36-1.66.24-.51.57-.95.99-1.31.42-.37.91-.65,1.49-.85.57-.2,1.2-.3,1.86-.3.6,0,1.17.08,1.73.25.55.17,1.03.41,1.45.73.42.32.75.71.99,1.19.24.48.36,1.01.36,1.61,0,.5-.09.96-.26,1.38-.18.42-.41.81-.71,1.19-.3.38-.65.73-1.06,1.08-.41.34-.85.67-1.31.99l4,4.2c.28-.58.5-1.21.66-1.89.16-.67.24-1.4.24-2.16h2.25c-.02,1.13-.16,2.18-.43,3.14-.27.96-.64,1.82-1.12,2.59l3.55,3.7h-3.62Zm-6.48-1.92c.62,0,1.21-.12,1.79-.35.57-.23,1.1-.57,1.59-1l-4.6-4.88c-.68.48-1.23.99-1.65,1.52-.42.53-.62,1.13-.62,1.8,0,.43.09.83.27,1.19.18.36.44.66.76.91.32.25.7.45,1.11.59.42.14.87.21,1.35.21Zm-2.4-12c0,.17.02.33.07.49.05.16.14.34.26.54.12.2.3.42.52.67s.5.56.84.93c.77-.48,1.37-.95,1.81-1.39s.66-.93.66-1.46-.19-.96-.56-1.29-.85-.49-1.44-.49c-.63,0-1.15.2-1.56.59-.41.39-.61.86-.61,1.41Z"></path><path class="cls-2" d="m97.21,59.26h2.45l7,17.75h-2.95l-1.88-4.83h-6.85l-1.85,4.83h-2.98l7.05-17.75Zm4.07,10.85l-2.85-7.62-2.95,7.62h5.8Z"></path><path class="cls-2" d="m107.74,68.01c0-1.07.19-2.13.58-3.19.38-1.06.95-2.01,1.69-2.85.74-.84,1.65-1.52,2.71-2.04,1.07-.52,2.27-.77,3.62-.77,1.62,0,3,.36,4.15,1.08,1.15.72,2.02,1.65,2.6,2.8l-2.2,1.48c-.25-.53-.55-.98-.9-1.35-.35-.37-.73-.66-1.15-.88-.42-.22-.85-.37-1.3-.46-.45-.09-.88-.14-1.3-.14-.93,0-1.75.19-2.45.56-.7.38-1.29.87-1.76,1.49s-.83,1.31-1.08,2.07c-.24.77-.36,1.53-.36,2.3,0,.87.14,1.69.42,2.48.28.78.68,1.47,1.19,2.07s1.11,1.08,1.81,1.44c.7.36,1.47.54,2.3.54.43,0,.88-.05,1.34-.16.46-.11.9-.28,1.32-.52.43-.24.82-.55,1.18-.91.36-.37.65-.81.89-1.32l2.33,1.32c-.28.67-.68,1.25-1.2,1.76s-1.1.94-1.75,1.29c-.65.35-1.34.62-2.06.8-.72.18-1.44.27-2.14.27-1.25,0-2.39-.27-3.43-.8-1.03-.53-1.92-1.23-2.67-2.09s-1.33-1.83-1.75-2.93c-.42-1.09-.62-2.2-.62-3.34Z"></path><path class="cls-2" d="m124.84,68.01c0-1.07.19-2.13.58-3.19.38-1.06.95-2.01,1.69-2.85.74-.84,1.65-1.52,2.71-2.04,1.07-.52,2.27-.77,3.62-.77,1.62,0,3,.36,4.15,1.08,1.15.72,2.02,1.65,2.6,2.8l-2.2,1.48c-.25-.53-.55-.98-.9-1.35-.35-.37-.73-.66-1.15-.88-.42-.22-.85-.37-1.3-.46-.45-.09-.88-.14-1.3-.14-.93,0-1.75.19-2.45.56-.7.38-1.29.87-1.76,1.49s-.83,1.31-1.08,2.07c-.24.77-.36,1.53-.36,2.3,0,.87.14,1.69.42,2.48.28.78.68,1.47,1.19,2.07s1.11,1.08,1.81,1.44c.7.36,1.47.54,2.3.54.43,0,.88-.05,1.34-.16.46-.11.9-.28,1.32-.52.43-.24.82-.55,1.18-.91.36-.37.65-.81.89-1.32l2.33,1.32c-.28.67-.68,1.25-1.2,1.76s-1.1.94-1.75,1.29c-.65.35-1.34.62-2.06.8-.72.18-1.44.27-2.14.27-1.25,0-2.39-.27-3.43-.8-1.03-.53-1.92-1.23-2.67-2.09s-1.33-1.83-1.75-2.93c-.42-1.09-.62-2.2-.62-3.34Z"></path><path class="cls-2" d="m150.44,77.13c-1.27,0-2.42-.25-3.46-.76-1.04-.51-1.94-1.18-2.69-2.02-.75-.84-1.33-1.8-1.74-2.89s-.61-2.19-.61-3.33.22-2.32.65-3.4c.43-1.08,1.03-2.04,1.79-2.88.76-.83,1.66-1.5,2.7-1.99,1.04-.49,2.18-.74,3.41-.74s2.42.26,3.46.79c1.04.52,1.93,1.21,2.67,2.06.74.85,1.32,1.81,1.73,2.89.41,1.08.61,2.17.61,3.29,0,1.18-.21,2.32-.64,3.4-.43,1.08-1.02,2.04-1.79,2.86-.77.82-1.67,1.48-2.71,1.98-1.04.49-2.17.74-3.39.74Zm-5.65-9c0,.83.13,1.64.4,2.42.27.78.65,1.48,1.14,2.08.49.6,1.09,1.08,1.79,1.44.7.36,1.48.54,2.35.54s1.7-.19,2.39-.56c.69-.38,1.28-.87,1.76-1.49.48-.62.85-1.31,1.1-2.07s.38-1.55.38-2.35c0-.85-.13-1.66-.4-2.44s-.65-1.46-1.14-2.05-1.08-1.07-1.77-1.43c-.69-.36-1.46-.54-2.31-.54-.9,0-1.7.19-2.4.56s-1.29.86-1.77,1.46c-.48.6-.85,1.29-1.11,2.06-.26.77-.39,1.56-.39,2.36Z"></path><path class="cls-2" d="m169.26,74.61c.93,0,1.71-.18,2.33-.55.62-.37,1.11-.85,1.49-1.44.38-.59.64-1.27.8-2.02.16-.76.24-1.54.24-2.34v-9h2.83v9c0,1.22-.14,2.36-.43,3.44-.28,1.08-.73,2.02-1.35,2.83s-1.41,1.45-2.39,1.91c-.98.47-2.15.7-3.51.7s-2.61-.25-3.59-.74-1.76-1.15-2.36-1.98c-.6-.83-1.03-1.77-1.3-2.84s-.4-2.18-.4-3.33v-9h2.8v9c0,.82.08,1.6.24,2.36.16.76.42,1.43.8,2.03s.88,1.07,1.5,1.42,1.4.54,2.31.54Z"></path><path class="cls-2" d="m183.46,64.51v12.5h-2.8v-17.75h2.2l10.15,12.8v-12.77h2.82v17.73h-2.32l-10.05-12.5Z"></path><path class="cls-2" d="m212.86,61.73h-5.9v15.27h-2.83v-15.27h-5.92v-2.48h14.65v2.48Z"></path><path class="cls-2" d="m215.24,77.01v-17.75h2.8v17.75h-2.8Z"></path><path class="cls-2" d="m224.84,64.51v12.5h-2.8v-17.75h2.2l10.15,12.8v-12.77h2.82v17.73h-2.32l-10.05-12.5Z"></path><path class="cls-2" d="m253.64,74.81c-1.5,1.55-3.22,2.33-5.17,2.33-1.18,0-2.28-.25-3.3-.74-1.02-.49-1.9-1.15-2.65-1.99-.75-.83-1.34-1.8-1.76-2.9-.43-1.1-.64-2.25-.64-3.45s.21-2.34.64-3.42c.42-1.08,1.01-2.03,1.76-2.85.75-.82,1.64-1.46,2.68-1.94,1.03-.48,2.16-.71,3.38-.71,1.7,0,3.12.35,4.27,1.06,1.15.71,2.02,1.65,2.6,2.81l-2.15,1.55c-.48-.97-1.15-1.69-2-2.17s-1.78-.73-2.8-.73c-.83,0-1.59.18-2.27.54-.68.36-1.27.83-1.75,1.42-.48.59-.85,1.28-1.11,2.06-.26.78-.39,1.6-.39,2.45,0,.9.15,1.74.44,2.52.29.78.69,1.47,1.2,2.05.51.58,1.11,1.05,1.81,1.39.7.34,1.46.51,2.28.51.9,0,1.76-.21,2.59-.62s1.61-1.08,2.36-1.98v-1.9h-3.72v-2.08h6.07v8.98h-2.35v-2.2Z"></path></g></g></svg> 